<svg width="733" height="205" viewBox="0 0 733 205" fill="none" xmlns="http://www.w3.org/2000/svg">
<path d="M145.514 33.6261C145.514 33.4346 145.322 33.0516 144.938 33.0516C144.938 33.0516 144.938 33.0516 144.746 33.0516C144.361 33.0516 141.863 32.86 140.134 31.1364C138.596 29.6042 137.828 27.689 137.828 24.4332C137.828 24.0501 137.828 23.8586 137.828 23.4756C137.828 23.0925 137.636 22.7095 137.059 22.7095C136.867 22.7095 136.483 22.901 136.483 23.284C136.483 23.4756 136.483 23.6671 136.483 23.8586C136.483 25.1992 136.098 28.4551 134.177 30.1788C133.216 31.1364 131.871 31.7109 130.333 31.7109C130.141 31.7109 129.757 31.9024 129.757 32.2855C129.757 32.477 129.949 32.86 130.141 32.86C130.333 32.86 136.291 33.4346 136.291 40.5208C136.291 40.7124 136.483 40.9039 136.675 41.0954C136.867 41.0954 137.251 40.9039 137.251 40.7124C137.251 40.5208 138.404 33.6261 143.977 33.4346H144.169C145.322 34.2007 145.514 34.0091 145.514 33.6261Z" fill="#8E61F1"/>
<path d="M161.674 53.3421C161.674 52.9591 161.29 52.9591 161.098 52.9591C161.098 52.9591 161.098 52.9591 160.905 52.9591C160.521 52.9591 158.023 53.3421 155.909 52.0015C154.18 50.8524 152.835 48.7457 152.45 45.8729C152.45 45.4898 152.258 45.2983 152.258 44.9153C152.258 44.5322 151.874 44.5322 151.682 44.5322C151.489 44.5322 151.297 44.9153 151.297 45.1068C151.297 45.2983 151.297 45.4898 151.489 45.6813C151.682 47.022 151.874 50.2778 150.529 52.7676C149.952 53.9167 148.607 54.6828 147.07 55.0658C146.877 55.0658 146.685 55.4489 146.685 55.6404C146.685 55.8319 147.07 56.2149 147.262 56.0234C147.454 56.0234 153.603 55.4489 155.141 62.7266C155.141 62.9181 155.333 63.1097 155.717 63.1097C155.909 63.1097 156.293 62.9181 156.101 62.5351C156.101 62.3436 155.909 55.0658 161.482 53.7252H161.674C161.482 54.1082 161.674 53.7252 161.674 53.3421Z" fill="#8E61F1"/>
<path d="M3.60215 115.188C3.40999 114.805 3.40999 114.039 3.60215 113.656C3.98648 112.506 4.56296 111.357 5.13945 110.4C5.33161 109.825 5.52378 109.059 6.10027 108.484C6.67676 106.952 7.44542 105.42 8.40624 104.08C9.55921 101.781 10.9044 99.6746 11.673 97.3763C12.0573 96.0357 12.826 94.6951 13.2103 93.3544C13.5946 92.2053 14.3633 91.0562 14.7476 90.0986C14.7476 89.907 14.9398 89.907 14.9398 89.907C16.2849 88.5664 17.6301 87.4173 18.9752 86.4597C19.1674 86.2682 19.3595 86.0767 19.3595 85.5021C19.5517 84.5445 19.5517 83.5869 19.7439 82.6293C19.936 81.6717 19.936 81.6717 20.8968 82.0547C21.089 82.0547 21.4733 82.2463 21.8577 82.2463C22.242 82.4378 22.242 82.4378 22.0498 82.8208C22.0498 83.0123 21.8577 83.0123 21.8577 83.2039C21.4733 83.7784 21.2812 84.353 20.7047 84.9275C20.5125 85.1191 20.5125 85.5021 20.3204 85.8851C20.1282 87.4173 20.1282 88.7579 20.3204 90.2901C20.3204 90.6731 20.3204 90.8647 20.3204 91.4392C20.3204 91.6307 20.3204 91.8222 20.1282 92.0138L19.936 92.2053C18.9752 94.6951 18.2066 97.1848 17.2457 99.6746C16.6693 101.59 15.7084 103.505 14.7476 105.229C14.1711 106.569 13.4025 108.101 12.826 109.634C12.2495 110.974 11.673 112.506 11.0965 114.039C10.7122 114.996 10.1357 115.571 9.55921 116.528L9.75137 116.72C9.94353 117.103 9.94354 117.677 9.55921 117.869C9.36705 118.06 9.36704 118.252 9.17488 118.444V118.635C8.79055 119.21 8.21407 119.976 7.82974 120.359C8.0219 121.508 7.82975 122.657 7.44542 123.615C7.06109 124.189 5.90811 125.147 4.56297 124.955C3.60215 124.764 2.8335 124.572 1.87268 124.381C1.48835 124.381 0.911865 123.806 0.911865 123.04C0.911865 122.657 0.911862 122.082 1.10403 121.891C1.48835 120.933 2.06484 120.359 2.44916 119.593C2.64133 119.401 2.64133 119.21 2.44916 119.018C2.257 118.635 2.44916 117.869 2.44916 117.486C2.44916 117.294 2.64134 117.294 2.64134 117.103C2.8335 116.911 2.8335 116.72 2.8335 116.528C3.02566 116.145 3.21783 115.762 3.60215 115.188ZM14.9398 90.8646C14.9398 91.0562 14.7476 91.2477 14.7476 91.2477C14.5555 92.2053 14.1711 92.9714 13.7868 93.7374C13.2103 95.6526 12.4417 97.9509 11.2887 99.8661C10.3279 101.59 9.55921 103.122 8.5984 104.846C8.21407 105.995 7.44541 106.761 7.06108 107.91C6.48459 109.442 5.71594 110.783 5.13945 112.315C4.94729 112.698 4.75513 113.272 4.75513 113.656C4.56297 114.039 4.75512 114.23 5.13945 114.613C5.52378 114.805 6.10028 114.805 6.4846 114.996C6.4846 114.996 6.4846 114.996 6.4846 114.805C7.06109 113.081 8.0219 111.357 8.98272 109.251C9.94353 107.527 10.7122 105.42 11.673 103.696C12.6338 101.973 13.2103 99.8661 14.1711 98.1424C15.1319 96.2272 15.9006 94.1205 16.8614 92.2053C17.0536 92.0138 17.0536 91.6307 17.2457 91.0562C16.2849 91.8222 15.7084 91.4392 14.9398 90.8646ZM18.0144 91.6307C17.8222 92.0138 17.8222 92.2053 17.8222 92.5883C16.8614 94.8866 16.0928 96.9933 15.1319 99.2915C14.7476 100.441 14.1711 101.207 13.7868 102.356C12.826 104.08 12.2495 105.803 11.2887 107.91C10.1357 110.208 9.36704 112.315 8.21406 114.613C8.0219 114.996 7.82974 115.571 7.82974 115.954C8.21407 116.145 8.79055 115.954 9.17488 115.762C9.36704 115.571 9.75137 115.571 10.1357 115.379C11.2887 112.889 12.0573 110.783 13.2103 108.293C13.5946 107.144 14.3633 105.995 14.7476 104.846C15.1319 103.696 15.9006 102.547 16.2849 101.398C17.4379 98.5254 18.5909 95.8442 19.3595 92.9714V92.7798C18.9752 92.3968 18.5909 92.2053 18.0144 91.6307ZM2.44916 123.04C3.02565 123.232 3.60214 123.232 4.17863 123.423C4.56296 123.423 5.13946 123.615 5.52379 123.615C6.10028 123.615 6.86892 123.232 6.86892 122.465C6.86892 122.082 6.86892 121.891 7.06108 121.316C7.06108 121.125 7.06108 121.125 7.06108 120.933C5.52378 121.125 4.17863 121.125 3.21782 119.784C2.64133 120.55 2.06484 122.274 2.44916 123.04ZM19.7439 86.6512C18.783 87.0343 18.2066 87.8003 17.4379 88.3749C16.8614 88.9495 16.0928 89.7155 15.5163 90.0986C15.9006 90.6731 16.6693 90.6731 17.0536 90.4816C17.2457 90.2901 17.4379 90.2901 17.6301 90.0986C17.6301 89.907 17.8222 89.907 18.0144 89.907L18.2066 90.0986C18.2066 90.2901 18.2066 90.4816 18.2066 90.6731C18.3987 91.0562 18.5909 91.2477 19.1674 91.0562C19.3595 91.0562 19.3595 91.0562 19.5517 90.8646C19.7439 89.907 19.7439 88.3749 19.7439 86.6512ZM3.98647 116.337C4.17864 116.528 4.17863 116.528 4.17863 116.528L4.3708 116.72C5.71594 117.103 6.86892 117.294 8.21406 117.294C8.59839 117.294 8.79055 117.294 9.17488 116.911C9.17488 116.72 8.98272 116.72 8.98272 116.528C8.40623 116.72 7.63757 116.72 7.06108 116.528C6.10027 116.337 5.33161 116.145 4.3708 115.954C4.3708 116.145 4.17864 116.337 3.98647 116.337ZM6.29243 120.359C5.71594 120.167 4.9473 120.167 4.56297 119.784C4.17864 119.401 3.40998 119.21 3.02566 118.635C3.02566 119.976 4.94728 120.742 6.29243 120.359ZM8.0219 119.018C6.67676 119.401 5.33162 119.018 3.98647 118.444C5.52378 119.593 7.44541 119.593 8.0219 119.018ZM20.8968 82.6293C20.7047 82.6293 20.7047 82.6293 20.5125 82.6293C20.5125 82.8208 20.5125 82.8208 20.5125 83.0123C20.8968 82.6293 20.8968 82.6293 20.8968 82.6293Z" fill="#8E61F1"/>
<path d="M86.6835 198.833C86.107 198.641 85.3384 198.45 84.954 198.258C83.801 197.875 83.801 196.918 84.3775 195.96C84.5697 195.577 84.954 195.003 84.954 194.62C84.954 193.47 84.5697 192.321 83.6089 191.555C83.0324 190.981 82.2637 190.406 81.6872 190.023C80.7264 189.448 79.7656 188.874 78.8048 188.299C77.4596 187.342 76.3067 186.576 75.3459 185.427C73.6164 183.511 72.6556 181.022 72.8477 178.34C72.8477 176.425 73.2321 174.318 74.1929 172.403C75.538 168.956 78.0361 166.466 81.3029 165.125C83.2245 164.168 85.5305 163.593 87.6443 163.402C92.0641 162.827 96.0995 163.976 98.9819 167.615C101.48 170.296 102.825 173.552 103.017 177C103.017 178.34 102.825 179.489 102.441 180.83C102.057 181.979 101.288 183.128 100.711 183.894C100.519 184.086 100.519 184.086 100.327 184.277C98.9819 185.618 98.4054 187.342 98.0211 189.065C98.0211 189.448 97.8289 190.023 97.6368 190.598C97.6368 190.789 97.6368 191.172 97.6368 191.172C98.0211 191.555 98.5976 191.747 98.9819 192.321C99.3662 192.896 99.3662 193.662 98.9819 194.236C98.5976 194.62 98.4054 195.194 97.829 195.577C98.0211 196.152 98.0211 196.918 97.6368 197.492C97.4446 197.684 97.4446 197.875 97.2525 198.45C97.0603 198.641 97.2525 198.833 97.2525 199.024C97.6368 199.599 97.4446 200.174 97.2525 200.748C96.676 202.089 95.7151 203.238 94.1778 203.621C93.0249 204.004 91.6797 204.196 90.7189 204.196C90.3346 204.196 90.1424 204.196 89.5659 204.004C88.9894 203.812 88.2208 203.046 88.4129 202.28C88.4129 201.897 88.2208 201.706 87.8365 201.323C87.26 201.131 87.26 200.365 87.26 199.791C86.6835 199.599 86.6835 199.216 86.6835 198.833ZM87.6443 181.405C87.4521 181.213 87.26 181.022 87.26 180.83C86.107 179.489 85.5305 178.149 85.3383 176.425C85.3383 176.234 85.3383 175.851 85.3383 175.468C85.5305 174.893 86.2992 174.318 86.8757 174.51C87.0678 174.51 87.26 174.701 87.4521 174.893C87.8365 175.276 88.0286 175.851 88.4129 176.234C88.9894 177.383 89.5659 178.723 89.7581 180.064C89.7581 180.256 89.7581 180.639 90.1424 180.639C90.5268 180.639 91.1032 180.83 91.4876 180.639C91.4876 180.447 91.4876 180.447 91.4876 180.447C91.6797 179.106 91.8719 177.574 92.4484 176.234C92.6405 175.659 93.0249 174.893 93.9857 174.701C94.5622 174.51 95.1387 174.701 95.523 175.084C95.7152 175.468 95.9073 176.234 95.9073 176.617C95.9073 177.574 95.7152 178.34 95.523 179.106C95.1387 180.256 94.37 181.405 93.217 181.788C92.8327 181.979 92.8327 182.171 92.8327 182.362C92.8327 183.32 93.0249 184.277 93.0249 185.235C93.217 186.767 93.4092 188.299 93.6014 189.64C93.6014 190.215 93.7935 190.789 93.7935 191.364C94.37 191.172 95.1387 191.172 95.7152 191.172C96.8681 191.172 96.8681 190.789 96.676 189.832C96.676 189.64 96.4838 189.448 96.4838 189.257C96.4838 188.874 96.2917 188.299 96.4838 187.916C96.676 185.618 97.4446 183.703 98.7898 182.171C99.1741 181.788 99.7506 181.022 99.9427 180.639C101.288 178.915 101.672 176.808 101.288 174.701C101.096 173.744 100.904 172.786 100.327 171.829C99.1741 169.147 97.4446 167.041 94.9465 165.7C93.0249 164.551 90.9111 164.359 88.7973 164.551C87.0678 164.742 85.5305 165.125 83.9932 165.892C80.1499 167.232 77.6518 169.722 76.3067 173.361C75.9224 174.701 75.3459 176.234 75.1537 177.766C74.9615 180.064 75.538 181.979 77.0753 183.703C78.2283 185.044 79.7656 186.001 81.3029 186.767C82.4559 187.342 83.6089 188.108 84.5697 189.065C85.7227 190.023 86.4913 191.364 87.0678 192.513C87.0678 192.704 87.26 192.896 87.26 193.087C87.8365 192.896 88.6051 192.704 89.1816 192.513C89.3738 191.555 89.1816 190.789 88.9894 189.832C88.4129 188.108 87.4521 186.384 86.4913 184.469C86.2991 184.086 85.9148 183.32 85.1462 183.32C84.954 183.32 84.7618 183.128 84.5697 183.128C82.8402 182.171 81.3029 180.83 80.1499 179.106C79.9578 178.723 79.7656 178.149 79.7656 177.574C79.7656 176.617 80.1499 176.425 80.9186 176.425C81.4951 176.425 82.2637 176.617 82.8402 177C84.1854 177.957 85.1462 179.298 85.9148 180.447C86.107 180.83 86.2991 181.022 86.4913 181.596C86.8756 182.171 87.26 181.979 87.6443 181.405ZM89.1816 182.171C88.7973 183.128 88.0286 183.703 87.26 184.086C87.4521 184.277 87.4521 184.469 87.4521 184.66C88.7973 187.15 90.1424 189.448 90.3346 192.321C90.9111 192.13 91.6797 191.938 92.6406 191.747C92.0641 188.682 91.2954 185.618 91.1032 182.554C90.1424 182.362 89.7581 182.171 89.1816 182.171ZM97.4446 192.704C97.0603 192.321 96.2917 192.13 95.9073 192.321C94.7543 192.704 93.6014 193.279 92.6406 193.662C91.2954 194.236 89.7581 194.811 88.4129 195.386C87.4521 195.577 86.8756 195.769 85.7227 195.96C85.7227 195.96 85.5305 196.152 85.5305 196.343C86.6835 196.918 87.8365 196.726 88.7973 196.726C91.6797 196.343 94.37 195.194 96.676 193.47C97.2525 193.279 97.2525 193.087 97.4446 192.704ZM96.0995 196.152C93.4092 197.875 90.7189 198.833 87.6443 198.833C87.4521 200.174 87.8365 200.557 89.1816 200.365C89.1816 200.365 89.1816 200.365 89.3738 200.365C90.9111 199.791 92.6405 199.216 94.1778 198.641C95.3308 198.258 95.9073 197.492 96.0995 196.152ZM89.3738 201.897C89.3738 202.472 89.3738 202.855 89.9503 202.855C90.5267 202.855 91.2954 202.855 92.2562 202.663C93.7935 202.472 94.9465 201.514 96.0995 200.365C96.2916 200.174 96.4838 199.791 96.2916 199.216C93.9857 200.557 91.6797 201.131 89.3738 201.897ZM83.801 181.788C82.8402 180.639 82.2637 179.489 80.9186 178.915C81.3029 179.872 82.4559 181.022 83.801 181.788ZM93.7935 176.617C93.217 177.191 92.6405 178.915 92.8327 179.489C93.6014 178.723 93.7935 177.766 93.7935 176.617Z" fill="#8E61F1"/>
<path d="M92.2554 147.131C92.8319 147.706 93.2163 148.663 92.8319 149.621C92.2554 152.111 91.4868 154.409 90.9103 156.899C90.7181 157.856 90.526 157.856 89.5652 157.856C88.9887 157.665 88.4122 157.282 88.6043 156.516C89.1808 154.026 89.9495 151.536 90.526 149.046C90.9103 148.089 91.4868 147.323 92.2554 147.131Z" fill="#8E61F1"/>
<path d="M76.4796 147.125C77.0561 147.316 77.4404 147.699 77.4404 148.274C78.0169 149.998 78.5934 151.721 78.9777 153.253C79.3621 154.594 79.5543 155.935 80.1307 157.275C80.1307 157.467 80.1307 157.85 80.3229 158.233C80.1307 158.233 79.9386 158.424 79.7464 158.424C79.1699 158.616 78.5934 158.424 78.4013 157.85C77.8248 155.36 76.6718 152.87 76.4796 150.189C76.4796 149.231 76.4796 148.657 76.2875 147.699C76.2875 147.699 76.4796 147.316 76.4796 147.125Z" fill="#8E61F1"/>
<path d="M100.902 152.105C100.902 152.488 100.902 153.063 100.71 153.254C100.326 154.595 99.749 155.936 98.9804 157.085C98.4039 157.659 97.8274 158.617 97.2509 159.574C97.0587 159.766 96.8666 159.958 96.2901 159.958C95.3293 159.958 94.7528 159.383 95.1371 158.425C95.1371 158.234 95.3293 158.234 95.3293 158.042C96.2901 156.893 96.8666 155.744 97.8274 154.786C98.4039 153.829 99.3647 153.254 100.133 152.488C100.326 152.297 100.518 152.297 100.902 152.105Z" fill="#8E61F1"/>
<path d="M74.9404 163.401C74.556 163.401 74.3639 163.593 74.3639 163.593C73.7874 163.401 72.8266 163.401 72.0579 163.21C70.3284 162.827 68.599 162.061 66.6774 161.486C66.4852 161.486 66.4852 161.486 66.293 161.295C65.9087 161.103 65.7166 160.72 65.7166 160.145C65.9087 159.762 66.293 159.188 66.8695 159.571C68.7911 160.145 70.905 160.72 72.8266 161.486C73.5952 161.869 74.3639 162.635 74.9404 163.401Z" fill="#8E61F1"/>
<path d="M706.724 108.864C706.531 108.481 706.339 108.289 706.147 107.715C705.955 107.14 706.147 106.566 706.531 106.374C706.724 106.374 707.108 106.183 707.492 105.991C707.876 105.416 708.069 104.65 708.069 104.076C708.069 103.693 707.877 102.927 707.877 102.544C707.684 101.969 707.492 101.203 707.3 100.628C706.916 99.6709 706.724 98.9048 706.724 97.7557C706.531 96.032 707.108 94.6914 708.261 93.3507C709.222 92.3931 709.99 91.6271 711.143 90.861C713.065 89.7119 715.371 89.3288 717.485 89.9034C718.83 90.2864 720.175 90.861 721.328 91.4355C723.826 92.9677 725.171 94.8829 725.363 97.7557C725.363 100.054 724.979 102.161 723.634 103.884C723.25 104.459 722.481 105.033 721.904 105.416C721.328 105.8 720.559 105.991 719.598 106.374C719.406 106.374 719.406 106.374 719.214 106.374C718.061 106.566 716.908 106.949 716.332 107.906C716.14 108.098 715.947 108.289 715.755 108.481C715.563 108.672 715.563 108.672 715.371 108.672C715.371 109.055 715.563 109.247 715.563 109.821C715.563 110.396 715.371 110.779 714.602 110.779C714.218 110.779 714.026 110.779 713.449 110.971C713.257 111.354 713.065 111.545 712.488 111.928C712.296 111.928 712.296 112.12 712.104 112.12C711.912 112.12 711.912 112.311 711.912 112.503C711.912 112.886 711.528 113.077 711.335 113.46C710.375 113.843 709.606 113.843 708.645 113.652C708.069 113.46 707.3 113.077 706.724 112.503C706.531 112.311 706.339 112.311 706.339 112.12C706.147 111.737 706.147 111.162 706.339 110.779C706.531 110.588 706.531 110.396 706.339 110.204C706.147 109.821 706.339 109.63 706.531 109.055C706.531 109.247 706.531 109.055 706.724 108.864ZM714.026 100.437C714.026 100.245 714.026 100.054 714.026 100.054C714.026 98.9048 714.218 98.1387 714.602 97.1811C714.602 96.9896 714.794 96.7981 714.987 96.7981C715.371 96.6066 715.947 96.6066 716.14 96.9896C716.14 97.1811 716.14 97.1811 716.14 97.3727C716.14 97.5642 716.14 97.9472 716.14 98.3303C715.947 99.2879 715.755 99.8624 715.179 100.82C715.179 101.012 714.987 101.012 715.179 101.203C715.371 101.395 715.371 101.586 715.755 101.586C715.755 101.586 715.755 101.586 715.947 101.395C716.524 100.82 717.293 100.054 717.869 99.6709C718.253 99.4794 718.83 99.4794 719.214 99.4794C719.598 99.6709 719.791 99.8624 719.598 100.437C719.598 100.82 719.406 101.012 719.214 101.395C718.83 101.778 718.638 101.969 718.061 102.544C717.485 102.927 716.716 103.118 715.755 102.927C715.563 102.927 715.371 102.927 715.371 103.118C715.179 103.501 714.794 104.076 714.41 104.65C714.026 105.608 713.449 106.183 712.873 107.14C712.681 107.332 712.488 107.715 712.296 108.098C712.681 108.289 712.873 108.481 713.449 108.672C714.026 109.055 714.026 108.864 714.41 108.481C714.41 108.289 714.41 108.289 714.602 108.098C714.794 107.906 714.794 107.715 714.987 107.523C715.947 106.566 716.908 105.8 718.253 105.608C718.638 105.608 719.214 105.416 719.406 105.416C720.751 105.033 721.904 104.267 722.289 102.927C722.481 102.352 722.673 101.778 722.865 101.203C723.25 99.4794 723.25 97.7557 722.673 96.2235C722.289 94.8829 721.328 93.9253 719.983 93.3507C719.022 92.7762 718.061 92.3931 717.1 92.0101C714.602 91.0525 712.488 91.4355 710.182 92.5847C709.222 92.9677 708.645 93.7338 707.877 94.3083C706.724 95.4575 706.339 96.6066 706.531 98.1387C706.724 99.2879 706.916 100.054 707.492 101.203C707.684 101.778 707.877 102.735 708.069 103.693C708.261 104.65 708.261 105.416 707.877 106.374C707.877 106.566 707.876 106.566 707.684 106.757C708.069 106.949 708.645 107.14 708.837 107.14C709.222 106.757 709.414 106.183 709.798 105.8C710.182 104.65 710.375 103.31 710.759 102.352C710.759 101.969 710.951 101.778 710.567 101.395C710.567 101.395 710.375 101.203 710.375 101.012C709.99 99.8624 709.798 98.5218 709.798 97.1811C709.798 96.7981 709.99 96.6066 710.182 96.2235C710.375 95.8405 710.759 95.8405 711.335 96.032C711.912 96.2235 711.912 96.6066 711.912 97.1811C712.104 98.1387 712.104 99.0963 712.104 100.245C712.104 100.437 712.104 100.628 712.104 101.203C713.449 101.012 713.834 100.82 714.026 100.437ZM714.41 101.586C713.834 101.778 713.257 101.969 712.681 101.778C712.681 101.969 712.681 101.969 712.681 102.161C712.296 103.884 712.104 105.416 711.143 106.949C711.528 107.14 712.104 107.332 712.488 107.332C713.449 105.608 714.218 103.884 715.371 101.969C714.987 102.352 714.794 101.969 714.41 101.586ZM714.41 110.204C714.41 109.821 714.218 109.63 713.834 109.247C713.257 109.055 712.488 108.864 711.528 108.672C710.567 108.481 709.798 108.289 708.837 107.715C708.453 107.523 707.877 107.332 707.3 107.14C707.3 107.14 707.108 107.14 706.916 107.332C707.108 107.906 707.876 108.481 708.453 108.864C709.99 109.821 711.72 110.205 713.834 110.396C714.026 110.205 714.218 110.204 714.41 110.204ZM712.488 111.354C710.567 111.162 708.645 110.396 707.492 109.438C706.916 110.013 706.916 110.588 707.492 110.779C708.645 111.162 709.414 111.354 710.567 111.928C711.143 111.928 711.912 111.737 712.488 111.354ZM706.916 111.545C706.724 111.928 706.724 111.928 706.916 112.12C707.3 112.311 707.492 112.503 708.069 112.694C709.029 113.077 709.798 113.077 710.759 113.077C710.951 113.077 711.143 112.886 711.143 112.694C709.606 112.694 708.261 111.928 706.916 111.545ZM712.104 99.4794C712.104 98.5218 712.296 97.7557 711.912 96.7981C711.528 97.3727 711.528 98.5218 712.104 99.4794ZM718.83 100.82C718.446 100.82 717.485 101.395 717.292 101.969C718.061 101.586 718.446 101.203 718.83 100.82Z" fill="#8E61F1"/>
<path d="M729.784 85.6956C729.784 86.2702 729.592 86.8447 729.208 87.0363C727.863 87.9939 726.71 88.9515 725.365 89.9091C724.98 90.1006 724.788 90.1006 724.404 89.9091C724.212 89.7175 724.212 89.3345 724.596 88.7599C725.941 87.6108 727.286 86.8447 728.631 85.8871C728.824 85.5041 729.4 85.5041 729.784 85.6956Z" fill="#8E61F1"/>
<path d="M722.292 79.5671C722.484 79.9502 722.292 80.1417 722.292 80.5247C721.908 81.6739 721.331 82.823 720.947 83.5891C720.755 84.5467 720.37 85.1212 719.794 86.0788C719.794 86.2703 719.602 86.4619 719.602 86.4619C719.409 86.4619 719.409 86.4619 719.217 86.2703C718.833 86.0788 718.833 85.8873 718.833 85.3127C719.409 83.7806 719.986 82.2484 720.755 80.9078C720.947 80.5247 721.331 79.9502 721.715 79.7587C721.715 79.7587 722.1 79.5671 722.292 79.5671Z" fill="#8E61F1"/>
<path d="M732.087 91.4253C731.895 91.6168 731.703 91.8083 731.703 91.8083C731.126 92.1914 730.165 92.7659 729.205 92.9574C728.628 93.149 728.052 93.149 727.475 93.3405C727.283 93.3405 727.091 93.3405 726.899 93.3405C726.514 92.9574 726.514 92.3829 726.899 91.9998C726.899 91.9998 727.091 91.9998 727.091 91.8083C728.052 91.6168 728.82 91.4253 729.589 91.2338C730.165 91.0422 730.934 91.0422 731.511 91.0422C731.895 91.4253 731.895 91.4253 732.087 91.4253Z" fill="#8E61F1"/>
<path d="M714.983 87.0248C714.79 87.0248 714.598 87.0248 714.598 86.8332C714.406 86.4502 714.022 86.2587 713.637 85.6841C713.061 84.7265 712.292 83.7689 711.716 82.8113L711.524 82.6198C711.332 82.4283 711.524 82.0452 711.716 82.0452C711.908 81.8537 712.292 81.8537 712.677 82.2368C713.253 83.3859 714.214 84.535 714.983 85.4926C714.983 85.6841 714.983 86.2587 714.983 87.0248Z" fill="#8E61F1"/>
<path d="M652.657 156.141C652.657 155.949 652.465 155.758 652.465 155.183C652.272 154.8 652.08 154.609 651.888 154.034C651.696 153.651 651.312 152.885 650.927 152.502C645.931 142.16 640.743 131.818 635.746 121.476C634.017 118.028 632.287 114.39 630.75 110.751L629.021 106.92C628.444 105.388 627.676 104.047 627.099 102.515C626.715 101.558 626.138 100.983 625.562 100.792C624.601 100.6 624.024 100.983 623.256 101.366C623.064 101.366 623.064 101.558 622.871 101.558C621.911 102.132 621.718 103.281 622.295 104.239C622.487 104.622 622.679 105.197 622.871 105.771L625.37 110.559C626.907 113.815 628.444 117.262 629.982 120.327C631.903 124.349 634.017 128.179 635.939 132.392C638.437 137.372 640.935 142.543 643.433 147.523C643.817 148.48 644.394 149.246 644.778 150.204C646.123 152.694 647.276 154.992 648.045 157.673C648.237 158.248 648.621 158.822 649.198 159.014H649.39C649.774 159.014 650.351 159.014 650.735 158.822C651.312 158.631 651.888 158.248 652.465 157.673C652.657 157.482 652.849 157.29 652.849 157.099L653.233 156.524L652.657 156.141ZM631.711 120.518L631.519 120.135L631.903 119.944L632.095 120.327L631.711 120.518Z" fill="#8E61F1"/>
<path d="M641.327 95.0669C641.327 94.8754 641.327 94.6838 641.135 94.6838C640.943 94.6838 639.79 94.3008 638.829 93.1517C638.253 92.1941 638.253 90.8534 638.637 89.7043C638.637 89.5128 638.637 89.3213 638.637 89.3213C638.637 89.1298 638.637 89.1298 638.445 88.9382C638.253 88.9382 638.253 88.9382 638.061 89.1297C638.061 89.3213 638.061 89.3213 638.061 89.5128C637.869 90.0874 637.484 91.811 636.139 92.3856C635.563 92.7686 634.794 92.7686 634.217 92.5771C634.025 92.5771 634.025 92.5771 633.833 92.7686C633.833 92.9602 633.833 92.9602 634.025 93.1517C634.217 93.1517 637.1 94.3008 636.331 97.7481C636.331 97.9397 636.331 97.9397 636.523 98.1312C636.716 98.1312 636.716 98.1312 636.908 97.9397C636.908 97.7482 638.445 94.4923 641.135 95.0669C640.943 95.2584 641.327 95.2584 641.327 95.0669Z" fill="#8E61F1"/>
<path d="M590.74 106.366C590.74 106.175 590.74 106.175 590.548 106.175C590.356 106.175 589.395 105.983 588.819 105.026C588.435 104.451 588.435 103.302 588.627 102.153C588.627 101.962 588.627 101.962 588.627 101.962C588.627 101.77 588.627 101.77 588.435 101.77C588.242 101.77 588.242 101.77 588.242 101.962V102.153C588.05 102.536 587.666 103.877 586.705 104.643C586.321 104.834 585.552 105.026 585.168 104.834C584.976 104.834 584.976 104.834 584.976 105.026C584.976 105.217 584.976 105.217 585.168 105.217C585.168 105.217 587.666 106.175 586.897 109.048C586.897 109.239 586.897 109.239 587.089 109.239C587.282 109.239 587.282 109.239 587.282 109.048C587.282 108.856 588.435 106.366 590.548 106.75C590.74 106.75 590.74 106.75 590.74 106.366Z" fill="#8E61F1"/>
<path d="M652.475 110.006C652.283 109.814 652.475 109.814 652.475 110.006C652.283 109.814 652.283 109.814 652.475 110.006C652.283 109.814 652.283 109.814 652.283 109.814C652.283 109.814 652.283 109.814 652.091 109.814C652.091 109.814 652.091 109.814 651.898 109.814C651.898 109.814 651.898 109.814 651.706 109.814C651.706 109.814 651.706 109.814 651.514 109.814C651.514 109.814 651.514 109.814 651.322 109.814C651.322 109.814 651.322 109.814 651.13 109.814C651.13 109.814 651.13 109.814 650.938 109.814C650.938 109.814 650.938 109.814 650.938 109.622C650.938 109.622 650.938 109.622 650.938 109.431C650.938 109.431 650.938 109.431 650.938 109.239C650.938 109.239 650.938 109.239 650.938 109.048C650.938 109.048 650.938 109.048 650.938 108.856C650.938 108.856 650.938 108.856 650.938 108.665C650.938 108.665 650.938 108.665 650.938 108.473V108.282V108.09C650.938 108.09 650.938 108.09 650.938 107.899C650.938 107.899 650.938 107.899 650.938 107.707V107.516C650.938 107.516 650.938 107.516 650.938 107.324V107.133V106.941V106.75V106.558C650.938 106.367 650.938 106.175 650.938 105.984C650.938 105.984 650.938 105.984 650.745 105.984C650.745 105.984 650.745 105.984 650.745 106.175V106.367C650.745 106.367 650.745 106.367 650.745 106.558V106.75V106.941C650.745 106.941 650.745 106.941 650.745 107.133C650.745 107.133 650.553 107.133 650.553 107.324C650.553 107.324 650.553 107.324 650.361 107.324C650.361 107.324 650.361 107.324 650.169 107.324C650.169 107.324 650.169 107.324 649.977 107.324C649.977 107.324 649.977 107.324 649.785 107.324H649.208H649.016C648.824 107.324 648.824 107.324 648.632 107.324H648.44C648.44 107.324 648.44 107.324 648.247 107.324C648.247 107.324 648.247 107.324 648.055 107.324C648.055 107.324 648.055 107.324 647.863 107.324H647.671C647.671 107.324 647.671 107.324 647.863 107.324H648.055H648.247H648.44C648.44 107.324 648.44 107.324 648.632 107.324H648.824H649.016H649.208H649.4C649.4 107.324 649.593 107.324 649.593 107.516L649.785 107.707C649.785 107.707 649.785 107.707 649.785 107.899C649.785 107.899 649.785 107.899 649.785 108.09C649.785 108.09 649.785 108.09 649.785 108.282C649.785 108.282 649.785 108.282 649.785 108.473V108.665C649.785 108.665 649.785 108.665 649.785 108.856C649.785 108.856 649.785 108.856 649.785 109.048V108.856V108.665V108.473V108.282C649.785 108.282 649.785 108.282 649.785 108.09V107.899C649.785 107.899 649.785 107.899 649.785 107.707C649.785 107.707 649.785 107.707 649.785 107.516C649.785 107.516 649.785 107.324 649.977 107.324C649.977 107.324 649.977 107.324 650.169 107.133C650.169 107.133 650.361 107.133 650.361 106.941C650.361 106.941 650.553 106.941 650.553 106.75H650.745H650.938H651.13C651.13 106.75 651.13 106.75 651.322 106.75H651.514C651.514 106.75 651.514 106.75 651.706 106.75H651.898H652.091C652.091 106.75 652.091 106.75 652.283 106.75H652.475C652.091 110.197 652.283 110.197 652.475 110.006C652.283 110.197 652.283 110.197 652.475 110.006ZM650.553 109.622C650.361 109.239 650.361 109.622 650.553 109.622C650.361 109.239 650.361 109.239 650.553 109.622C650.553 109.239 650.361 109.239 650.553 109.622ZM648.247 105.984C648.055 105.984 648.055 105.984 648.247 105.984V105.984ZM648.055 105.984C648.247 105.984 648.247 105.984 648.055 105.984V105.984ZM649.593 110.197C649.593 110.005 649.593 110.005 649.593 110.197V110.197ZM650.745 109.814C650.553 109.814 650.553 109.814 650.745 109.814C650.553 109.814 650.361 109.814 650.361 109.814C650.361 109.814 650.361 109.814 650.169 109.814C650.169 109.814 650.169 109.814 649.977 109.814C649.977 109.814 649.977 109.814 649.977 110.006V110.197C649.977 110.197 649.977 110.197 649.977 110.389C649.977 110.389 649.977 110.389 649.977 110.58V110.389V110.197V110.006C649.977 110.006 649.977 110.006 649.977 109.814V109.622C649.977 109.622 649.977 109.622 649.977 109.431V109.239C649.977 109.239 649.977 109.239 649.977 109.048C649.977 109.048 649.977 109.048 649.977 108.856V108.665V108.473C649.977 108.473 649.977 108.282 649.785 108.282C649.785 108.282 649.785 108.282 649.785 108.09C649.785 108.09 649.785 108.09 649.593 108.09C649.593 108.09 649.593 108.09 649.4 108.09C649.4 108.09 649.4 108.09 649.208 108.09H649.016C649.016 108.09 649.016 108.09 648.824 108.09C648.824 108.09 648.824 108.09 648.632 108.09C648.632 108.09 648.632 108.09 648.824 108.09H649.016C649.016 108.09 649.016 108.09 649.208 108.09C649.208 108.09 649.208 108.09 649.4 108.09C649.4 108.09 649.4 108.09 649.593 108.09C649.593 108.09 649.592 107.899 649.785 107.899C649.785 107.899 649.785 107.899 649.785 107.707C649.785 107.707 649.785 107.707 649.785 107.516C649.785 107.516 649.785 107.516 649.785 107.324C649.785 107.324 649.785 107.324 649.785 107.133C649.785 107.133 649.785 107.133 649.785 106.941C649.785 106.941 649.785 106.941 649.785 106.75C649.785 106.75 649.785 106.75 649.785 106.558C649.785 106.558 649.785 106.558 649.785 106.75C649.785 106.75 649.785 106.75 649.785 106.941C649.785 106.941 649.785 106.941 649.785 107.133V107.324C649.785 107.324 649.785 107.324 649.785 107.516V107.707C649.785 107.707 649.785 107.707 649.785 107.899C649.785 107.899 649.785 107.899 649.785 108.09H649.977C649.977 108.09 649.977 108.09 650.169 108.09C650.553 109.622 650.553 109.622 650.745 109.814Z" fill="#8E61F1"/>
<path d="M617.853 127.234C618.045 127.234 618.045 127.234 617.853 127.234C617.853 127.043 617.853 127.043 617.853 127.043C617.853 127.043 617.853 127.043 617.661 127.043H617.468H617.276C617.276 127.043 617.276 127.043 617.084 127.043C617.084 127.043 617.084 127.043 616.892 127.043C616.892 127.043 616.892 127.043 616.7 127.043C616.7 127.043 616.508 127.043 616.508 126.851H616.315C616.315 126.851 616.123 126.851 616.123 126.66H615.931H615.739C615.739 126.66 615.739 126.66 615.547 126.66H615.355H614.586H614.394C614.394 126.66 614.202 126.66 614.202 126.468C614.202 126.468 614.202 126.468 614.01 126.468H613.817C613.817 126.468 613.625 126.468 613.625 126.277C613.625 126.277 613.625 126.277 613.433 126.277C613.433 126.277 613.241 126.277 613.241 126.085L613.049 125.894C613.049 125.894 613.049 125.894 612.857 125.702C612.857 125.702 612.857 125.702 612.857 125.511C612.857 125.511 612.857 125.319 612.664 125.319C612.664 125.319 612.664 125.319 612.664 125.128C612.664 125.128 612.664 125.128 612.664 124.936C612.664 124.936 612.664 124.936 612.664 124.745C612.664 124.745 612.472 124.553 612.664 124.553V124.362V124.17V123.978V123.787V123.595C612.664 123.404 612.664 123.212 612.664 123.212C612.664 123.021 612.664 123.021 612.664 122.829V122.638V122.446V122.255C612.664 122.063 612.664 121.872 612.664 121.872V121.68C612.664 121.489 612.664 121.489 612.664 121.297C612.664 121.106 612.664 121.106 612.664 120.914C612.664 120.723 612.664 120.723 612.664 120.531C612.664 120.34 612.664 120.34 612.664 120.148C612.664 119.765 612.664 119.574 612.664 118.999C612.664 118.999 612.664 118.999 612.664 118.807H612.472C612.472 118.807 612.472 118.807 612.28 118.807C612.28 118.807 612.28 118.807 612.28 118.999C612.28 118.999 612.28 118.999 612.28 119.19C612.28 119.19 612.28 119.19 612.28 119.382C612.28 119.382 612.28 119.382 612.28 119.574V119.765V119.957V120.148C612.28 120.34 612.28 120.34 612.28 120.531V120.723V120.914V121.106C612.28 121.106 612.28 121.106 612.28 121.297C612.28 121.297 612.28 121.297 612.28 121.489C612.28 121.489 612.28 121.489 612.28 121.68C612.28 121.68 612.28 121.68 612.28 121.872C612.28 121.872 612.28 121.872 612.28 122.063C612.28 122.063 612.28 122.063 612.28 122.255C612.28 122.255 612.28 122.446 612.088 122.446C612.088 122.446 612.088 122.446 612.088 122.638C612.088 122.638 612.088 122.638 612.088 122.829V123.021C612.088 123.021 612.088 123.021 612.088 123.212V123.404V123.595C612.088 123.595 612.088 123.595 612.088 123.787C612.088 123.787 612.088 123.787 612.088 123.978H611.896C611.896 123.978 611.896 123.978 611.896 124.17L611.704 124.362C611.704 124.362 611.704 124.362 611.511 124.553C611.511 124.553 611.511 124.553 611.319 124.745C611.319 124.745 611.319 124.745 611.127 124.936C610.935 124.936 610.935 125.128 610.743 125.128H610.551H610.358C610.358 125.128 610.358 125.128 610.166 125.128C610.166 125.128 610.166 125.128 609.974 125.128H609.782H609.59C609.59 125.128 609.59 125.128 609.398 125.128H609.205C609.013 125.128 609.013 125.128 608.821 125.128C608.629 125.128 608.629 125.128 608.437 125.128C608.245 125.128 608.052 125.128 607.86 125.128C607.668 125.128 607.668 125.128 607.476 125.128H607.284H607.092H606.9H606.707H606.515C606.515 125.128 606.515 125.128 606.323 125.128C606.323 125.128 606.323 125.128 606.131 125.128H605.939C605.939 125.128 605.939 125.128 605.747 125.128H605.554C605.362 125.128 605.362 125.128 605.17 125.128C605.17 125.128 605.17 125.128 605.17 125.319C605.17 125.319 605.17 125.511 605.362 125.511C605.362 125.511 605.362 125.511 605.554 125.511H605.747C605.747 125.511 605.939 125.511 605.939 125.702C606.131 125.702 606.131 125.894 606.323 125.894C606.323 125.894 606.515 125.894 606.515 126.085H606.707C606.707 126.085 606.707 126.085 606.9 126.085C607.092 126.085 607.284 126.277 607.284 126.277H607.476C607.476 126.277 607.476 126.277 607.668 126.277H607.86C607.86 126.277 608.052 126.277 608.052 126.468C608.245 126.468 608.245 126.468 608.437 126.66C608.437 126.66 608.437 126.66 608.629 126.66C608.629 126.66 608.629 126.66 608.821 126.66C609.013 126.66 609.013 126.851 609.205 126.851C609.398 126.851 609.398 127.043 609.59 127.043C609.59 127.043 609.59 127.043 609.59 127.234C609.59 127.234 609.59 127.234 609.59 127.426V127.617C609.59 127.617 609.59 127.617 609.59 127.809C609.59 127.809 609.59 127.809 609.59 128C609.59 128 609.59 128 609.59 128.192V128.383C609.59 128.383 609.59 128.383 609.59 128.575V128.766V128.958V129.15C609.59 129.15 609.59 129.15 609.59 129.341C609.59 129.341 609.59 129.341 609.59 129.533V129.724C609.59 129.724 609.59 129.724 609.59 129.916C609.59 129.916 609.59 129.916 609.59 130.107C609.59 130.107 609.59 130.107 609.59 130.299C609.59 130.299 609.59 130.299 609.59 130.49C609.59 130.49 609.59 130.49 609.59 130.682V130.873C609.59 130.873 609.59 130.873 609.59 131.065C609.59 131.256 609.59 131.256 609.59 131.448C609.59 131.448 609.59 131.448 609.59 131.639V131.831V132.022C609.59 132.022 609.59 132.022 609.59 132.214V132.405C609.59 132.405 609.59 132.405 609.59 132.597V132.788V132.98V133.171C609.59 133.171 609.782 133.171 609.782 132.98C609.782 132.98 609.782 132.98 609.974 132.98C609.974 132.98 609.974 132.98 609.974 132.788V132.597V132.405C609.974 132.214 609.974 132.214 609.974 132.022C609.974 131.831 609.974 131.831 609.974 131.639V131.448C609.974 131.448 609.974 131.448 609.974 131.256C609.974 131.256 609.974 131.256 609.974 131.065V130.873C609.974 130.873 609.974 130.873 609.974 130.682V130.49C609.974 130.49 609.974 130.49 609.974 130.299V130.107V129.916C609.974 129.916 609.974 129.916 609.974 129.724C609.974 129.724 609.974 129.533 610.166 129.533C610.166 129.533 610.166 129.533 610.166 129.341C610.166 129.341 610.166 129.341 610.166 129.15C610.166 129.15 610.358 129.15 610.166 128.958C610.166 128.958 610.166 128.766 610.358 128.766C610.358 128.766 610.358 128.767 610.551 128.575C610.551 128.575 610.551 128.575 610.551 128.383C610.551 128.192 610.743 128.192 610.743 128L610.935 127.809C610.935 127.809 610.935 127.809 611.127 127.809C611.127 127.809 611.319 127.809 611.319 127.617C611.319 127.617 611.511 127.426 611.704 127.426C611.896 127.426 612.088 127.234 612.088 127.234H612.28C612.28 127.234 612.28 127.234 612.472 127.234H612.664H612.857H613.049H613.241H613.433H613.625C613.817 127.234 613.817 127.234 614.01 127.234C614.202 127.234 614.202 127.234 614.394 127.234H614.586C614.778 127.234 614.778 127.234 614.97 127.234H615.162H615.355C617.853 127.617 617.853 127.426 617.853 127.234ZM611.127 118.041C611.127 118.424 611.127 118.424 611.127 118.041V118.041ZM610.551 120.723C610.166 120.531 610.166 120.723 610.551 120.723V120.723ZM609.974 121.68C609.974 121.489 609.974 121.489 609.974 121.68V121.68ZM613.049 127.234C613.433 127.234 613.433 127.234 613.049 127.234V127.234ZM613.625 127.234C613.625 126.851 613.625 126.851 613.625 127.234V127.234ZM614.97 126.66C614.778 126.66 614.778 126.66 614.778 126.66C614.586 126.66 614.586 126.66 614.394 126.66H614.202H614.01H613.817C613.817 126.66 613.817 126.66 613.625 126.66C613.625 126.66 613.433 126.66 613.433 126.851C613.433 126.851 613.241 126.851 613.241 127.043L613.049 127.234C613.049 127.234 613.049 127.234 612.857 127.426C612.857 127.426 612.857 127.426 612.664 127.617C612.664 127.617 612.664 127.617 612.472 127.809C612.472 127.809 612.472 128 612.28 128C612.28 128 612.28 128 612.28 128.192L612.088 128.383C612.088 128.383 612.088 128.383 612.088 128.575C612.088 128.575 612.088 128.766 611.896 128.766C611.896 128.766 611.896 128.958 611.704 128.958C611.704 128.958 611.704 128.958 611.511 129.15C611.511 129.15 611.511 129.15 611.511 129.341C611.511 129.341 611.511 129.341 611.511 129.533C611.511 129.533 611.511 129.533 611.511 129.724C611.511 129.724 611.511 129.724 611.319 129.724L611.127 129.916V130.107C611.127 130.107 611.127 130.299 610.935 130.299C610.935 130.107 610.935 130.107 610.935 129.916V129.724V129.533V129.341V129.15V128.958V128.766V128.575C610.935 128.575 610.935 128.575 610.935 128.383V128.192C610.935 128 610.935 128 610.935 127.809C610.935 127.809 610.935 127.617 610.743 127.617C610.743 127.426 610.551 127.426 610.551 127.234C610.551 127.234 610.551 127.043 610.358 127.043C610.358 127.043 610.358 127.043 610.166 127.043C610.166 127.043 610.166 127.043 609.974 126.851C609.974 126.851 609.974 126.851 609.782 126.66C609.782 126.66 609.782 126.66 609.59 126.66C609.59 126.66 609.59 126.66 609.398 126.468C609.398 126.468 609.398 126.468 609.205 126.468C609.205 126.468 609.205 126.468 609.013 126.468H608.821C608.821 126.468 608.821 126.468 608.629 126.468C608.629 126.468 608.437 126.468 608.437 126.277H608.245C608.245 126.277 608.052 126.277 607.86 126.085H607.668C607.668 126.085 607.668 126.085 607.476 126.085H607.284H607.092C607.092 126.085 607.092 126.085 606.9 126.085C606.9 126.085 606.899 126.085 606.707 126.085C606.707 126.085 606.707 126.085 606.9 126.085C606.9 126.085 606.9 126.085 607.092 126.085H607.284H607.476C607.476 126.085 607.476 126.085 607.668 126.085H607.86C607.86 126.085 607.86 126.085 608.052 126.085C608.052 126.085 608.053 126.085 608.245 126.085H608.437H608.629H608.821C608.821 126.085 608.821 126.085 609.013 126.085C609.013 126.085 609.013 126.085 609.205 126.085H609.398H609.59H609.782C609.782 126.085 609.974 126.085 609.974 125.894C609.974 125.894 609.974 125.702 610.166 125.702C610.166 125.511 610.358 125.511 610.358 125.319C610.358 125.319 610.358 125.128 610.551 125.128C610.551 125.128 610.551 124.936 610.743 124.936V124.745C610.743 124.745 610.743 124.745 610.743 124.553C610.743 124.553 610.743 124.362 610.935 124.362C610.935 124.362 610.935 124.362 610.935 124.17V123.978C610.935 123.978 610.935 123.787 611.127 123.787V123.595C611.127 123.595 611.127 123.595 611.127 123.404V123.212V123.021V122.255V122.446V122.638V122.829V123.021C611.127 123.021 611.127 123.021 611.127 123.212V123.404C611.127 123.404 611.127 123.404 611.127 123.595V123.787V123.978C611.127 124.17 611.127 124.17 611.319 124.362V124.553C611.319 124.553 611.319 124.553 611.319 124.745C611.319 124.745 611.319 124.745 611.319 124.936V125.128C611.319 125.128 611.319 125.319 611.511 125.319C611.511 125.319 611.511 125.319 611.511 125.511C611.511 125.511 611.511 125.702 611.704 125.702C611.704 125.702 611.704 125.894 611.896 125.894C611.896 126.085 612.088 126.085 612.28 126.085H612.472C612.472 126.085 612.472 126.085 612.664 126.085C612.664 126.085 612.664 126.085 612.857 126.085C612.857 126.085 612.857 126.085 613.049 126.085C614.586 126.468 614.586 126.468 614.97 126.66C614.586 126.468 614.586 126.468 614.97 126.66C614.97 126.468 614.586 126.468 614.97 126.66C614.97 126.468 614.97 126.468 614.97 126.66Z" fill="#8E61F1"/>
<path d="M617.856 83.9614C617.663 83.7698 617.663 83.7698 617.663 83.7698C617.663 83.7698 617.663 83.7698 617.471 83.7698C617.471 83.7698 617.471 83.7698 617.279 83.7698C617.279 83.7698 617.279 83.7698 617.087 83.7698C617.087 83.7698 617.087 83.7698 616.895 83.7698C616.895 83.7698 616.895 83.7698 616.703 83.7698C616.703 83.7698 616.703 83.7698 616.51 83.7698C616.51 83.7698 616.51 83.7698 616.318 83.7698C616.318 83.7698 616.318 83.7698 616.318 83.5783C616.318 83.5783 616.318 83.5783 616.318 83.3868C616.318 83.3868 616.318 83.3868 616.318 83.1953C616.318 83.1953 616.318 83.1953 616.318 83.0038C616.318 83.0038 616.318 83.0038 616.318 82.8122C616.318 82.8122 616.318 82.8122 616.318 82.6207V82.4292V82.0462C616.318 82.0462 616.318 82.0462 616.318 81.8546C616.318 81.8546 616.318 81.8546 616.318 81.6631V81.4716C616.318 81.4716 616.318 81.4716 616.318 81.2801V81.0886V80.897V80.7055V80.131C616.318 79.9394 616.318 79.7479 616.318 79.5564C616.318 79.5564 616.318 79.5564 616.126 79.5564C616.126 79.5564 616.126 79.5564 616.126 79.7479V79.9394C616.126 79.9394 616.126 79.9394 616.126 80.131C616.126 80.131 616.126 80.131 616.126 80.3225V80.514C616.126 80.514 616.126 80.514 616.126 80.7055C616.126 80.7055 615.934 80.7055 615.934 80.897C615.934 80.897 615.934 80.897 615.742 80.897C615.742 80.897 615.742 80.897 615.55 80.897C615.55 80.897 615.55 80.897 615.357 80.897C615.357 80.897 615.357 80.897 615.165 80.897H614.973H614.781C614.589 80.897 614.589 80.897 614.397 80.897H614.204C614.204 80.897 614.204 80.897 614.012 80.897C614.012 80.897 614.012 80.897 613.82 80.897C613.82 80.897 613.82 80.897 613.628 80.897H612.667C612.667 80.897 612.667 80.897 612.859 80.897H613.052H613.244H613.436C613.436 80.897 613.436 80.897 613.628 80.897H613.82H614.012H614.204H614.397C614.397 80.897 614.589 80.897 614.589 81.0886L614.781 81.2801C614.781 81.2801 614.781 81.2801 614.781 81.4716C614.781 81.4716 614.781 81.4716 614.781 81.6631C614.781 81.6631 614.781 81.6631 614.781 81.8546C614.781 81.8546 614.781 81.8546 614.781 82.0462V82.2377C614.781 82.2377 614.781 82.2377 614.781 82.4292C614.781 82.4292 614.781 82.4292 614.781 82.6207C614.781 82.6207 614.781 82.6207 614.781 82.4292V82.2377V82.0462V81.8546C614.781 81.8546 614.781 81.8546 614.781 81.6631V81.4716C614.781 81.4716 614.781 81.4716 614.781 81.2801C614.781 81.2801 614.781 81.2801 614.781 81.0886C614.781 81.0886 614.781 80.897 614.973 80.897C614.973 80.897 614.973 80.897 615.165 80.7055C615.165 80.7055 615.357 80.7055 615.357 80.514C615.357 80.514 615.55 80.514 615.55 80.3225C615.55 80.3225 615.55 80.3225 615.742 80.3225H615.934C615.934 80.3225 615.934 80.3225 616.126 80.3225C616.126 80.3225 616.126 80.3225 616.318 80.3225H616.51C616.51 80.3225 616.51 80.3225 616.703 80.3225H616.895H617.087C617.087 80.3225 617.087 80.3225 617.279 80.3225H617.471C617.471 84.1529 617.471 84.1529 617.856 83.9614C617.471 84.1529 617.471 83.9614 617.856 83.9614ZM615.742 83.3868C615.55 83.3868 615.55 83.3868 615.742 83.3868V83.3868ZM613.628 79.5564C613.82 79.5564 613.82 79.5564 613.628 79.5564V79.5564ZM615.934 83.5783C615.742 83.5783 615.55 83.5783 615.55 83.5783C615.55 83.5783 615.55 83.5783 615.357 83.5783C615.357 83.5783 615.357 83.5783 615.165 83.5783C615.165 83.5783 615.165 83.5783 615.165 83.7698C615.165 83.7698 615.165 83.7698 615.165 83.9614C615.165 83.9614 615.165 83.9614 615.165 84.1529C615.165 84.1529 615.165 84.1529 615.165 84.3444V84.1529V83.9614C615.165 83.9614 615.165 83.9614 615.165 83.7698C615.165 83.7698 615.165 83.7698 615.165 83.5783V83.3868C615.165 83.3868 615.165 83.3868 615.165 83.1953V83.0038C615.165 83.0038 615.165 83.0038 615.165 82.8122C615.165 82.8122 615.165 82.8122 615.165 82.6207V82.4292V82.0462C615.165 82.0462 615.165 81.8546 614.973 81.8546C614.973 81.8546 614.973 81.8546 614.973 81.6631C614.973 81.6631 614.973 81.6631 614.781 81.6631C614.781 81.6631 614.781 81.6631 614.589 81.6631C614.589 81.6631 614.589 81.6631 614.397 81.6631H614.204C614.204 81.6631 614.204 81.6631 614.012 81.6631C614.012 81.6631 614.012 81.6631 613.82 81.6631C613.82 81.6631 613.82 81.6631 614.012 81.6631H614.204C614.204 81.6631 614.204 81.6631 614.397 81.6631C614.397 81.6631 614.397 81.6631 614.589 81.6631C614.589 81.6631 614.589 81.6631 614.781 81.6631C614.781 81.6631 614.781 81.4716 614.973 81.4716C614.973 81.4716 614.973 81.4716 614.973 81.2801C614.973 81.2801 614.973 81.2801 614.973 81.0886C614.973 81.0886 614.973 81.0886 614.973 80.897C614.973 80.897 614.973 80.897 614.973 80.7055C614.973 80.7055 614.973 80.7055 614.973 80.514C614.973 80.514 614.973 80.514 614.973 80.3225C614.973 80.3225 614.973 80.3225 614.973 80.514C614.973 80.514 614.973 80.514 614.973 80.7055C614.973 80.7055 614.973 80.7055 614.973 80.897V81.0886C614.973 81.0886 614.973 81.0886 614.973 81.2801V81.4716C614.973 81.4716 614.973 81.4716 614.973 81.6631C614.973 81.6631 614.973 81.6631 614.973 81.8546H615.165C615.165 81.8546 615.165 81.8546 615.357 81.8546C615.742 83.5783 615.934 83.5783 615.934 83.5783Z" fill="#8E61F1"/>
<path d="M653.637 13.906C654.598 13.906 655.174 13.7145 655.943 13.7145C656.904 13.523 657.673 13.3315 658.633 13.523H658.826C659.786 13.523 659.979 13.7145 659.786 14.6721C659.786 15.0552 659.402 15.6297 659.21 16.0128C658.826 16.3958 658.633 16.5873 658.057 17.1619C657.48 17.7364 656.904 18.311 656.327 18.8856C656.135 19.0771 656.135 19.0771 656.327 19.2686C657.48 20.6092 658.633 22.1414 659.594 23.482C659.786 23.6736 659.786 24.0566 659.786 24.6312C659.594 25.0142 659.402 25.5888 658.826 25.2057C658.249 25.2057 657.48 25.2057 656.904 25.0142C655.367 24.8227 653.829 24.4396 652.292 24.0566C652.1 24.0566 651.908 24.0566 651.715 23.8651C651.331 23.8651 651.139 23.8651 651.139 24.2481C650.947 24.6312 650.947 25.2057 650.755 25.7803C650.37 27.1209 650.178 28.27 649.602 29.6107C649.41 29.9937 649.41 30.5683 649.217 30.9513C649.217 31.1428 649.025 31.3344 648.833 31.5259C648.641 31.7174 648.641 31.7174 648.257 31.7174C647.872 31.5259 647.296 31.3344 647.104 30.7598C646.527 29.8022 645.758 28.8446 644.798 27.887L644.605 27.6955C643.26 28.6531 642.107 29.4192 640.762 30.3768C640.378 30.7598 639.801 30.9513 639.225 31.3344C638.264 31.7174 637.688 31.5259 637.495 30.7598C637.303 30.1852 637.303 29.4192 637.303 28.8446C637.303 27.6955 637.111 26.5464 637.111 25.5888C637.111 25.3972 636.919 25.2057 636.919 25.2057C636.342 24.8227 635.574 24.6312 634.613 24.0566C633.46 23.6736 632.691 23.099 631.346 23.099H631.154C630.193 22.9075 630.001 21.9499 630.77 21.5668C630.962 21.3753 631.154 21.3753 631.346 21.1838C632.691 20.2262 634.037 19.2686 635.189 18.1195L635.382 17.928C635.189 17.7364 635.189 17.5449 634.997 17.3534C634.421 16.3958 633.46 15.4382 632.691 14.4806C632.499 14.2891 632.307 14.0976 632.499 13.523C632.691 13.3315 632.883 13.3315 633.46 13.3315C634.036 13.3315 634.997 13.523 635.766 13.523C636.727 13.7145 637.688 13.7145 638.648 13.906C638.841 13.906 639.225 13.906 639.801 14.0976C639.801 13.906 639.801 13.7145 639.801 13.523C639.994 12.3739 639.994 11.2248 640.186 10.2672C640.186 9.6926 640.186 9.11803 640.378 8.54347C640.378 8.35195 640.378 8.16044 640.378 7.96892C640.378 7.58588 640.762 7.39435 641.339 7.58587C641.531 7.58587 641.531 7.7774 641.723 7.96892C643.068 9.11804 644.221 10.4587 645.182 11.7993C645.566 12.1824 646.143 12.9484 646.527 13.523C646.527 13.523 646.527 13.523 646.719 13.523C647.104 13.14 647.872 12.5654 648.257 11.9908C648.833 11.4163 649.794 10.6502 650.563 10.0756C651.331 9.50108 651.908 8.735 652.292 8.16044C652.484 7.96892 652.676 7.96891 652.676 7.77739C653.061 7.58587 653.253 7.58588 653.829 7.96892C654.214 8.35196 654.214 9.11803 654.214 9.69259C654.214 11.0332 654.214 12.3739 654.214 13.7145C653.637 13.14 653.637 13.523 653.637 13.906ZM633.076 13.7145C633.652 14.6721 634.421 15.4382 634.997 16.2043C635.189 16.3958 635.382 16.5873 635.574 17.1619C635.766 17.3534 635.766 17.5449 635.766 18.1195C635.766 18.311 635.574 18.311 635.382 18.5025C635.382 18.5025 635.382 18.5025 635.189 18.694C633.844 19.8432 632.499 20.9923 631.154 21.7584L630.962 21.9499C632.115 22.1414 633.268 22.5244 634.229 23.099C634.805 23.2905 635.766 23.6736 636.535 24.2481C636.919 24.4396 637.111 24.8227 637.111 25.5888C637.111 26.9294 637.303 28.27 637.303 29.6107C637.303 29.9937 637.303 30.1852 637.495 30.7598C637.88 30.5683 638.456 30.3768 638.841 30.1852C640.186 29.0361 641.915 28.27 643.26 27.1209C643.26 27.1209 643.26 27.1209 643.452 27.1209C643.837 26.9294 644.413 26.9294 644.605 27.3124C644.605 27.504 644.798 27.504 644.798 27.6955C645.374 28.6531 646.143 29.6107 647.104 30.5683C647.104 30.7598 647.296 30.7598 647.488 30.9513C647.872 29.6107 648.449 28.27 648.833 26.9294C649.025 25.9718 649.217 25.2057 649.41 24.4396C649.41 24.2481 649.602 23.8651 649.794 23.482C649.986 23.2905 650.178 23.099 650.37 23.099C650.563 23.099 650.755 23.099 650.947 23.099C652.484 23.2905 653.829 23.6736 655.367 24.0566C656.327 24.2481 656.904 24.2481 657.865 24.4396C658.057 24.4396 658.057 24.4396 658.249 24.4396V24.2481C657.865 23.6736 657.096 22.9075 656.712 22.3329C656.135 21.3753 655.367 20.8008 654.982 19.8432C654.598 19.4601 654.598 19.2686 654.982 18.694C655.559 17.7364 656.327 17.1619 657.288 16.3958C657.673 16.2043 657.865 15.8212 658.249 15.4382C658.249 15.4382 658.249 15.2467 658.441 15.0552C658.057 15.0552 657.48 15.0552 657.096 15.2467C655.943 15.4382 655.174 15.4382 654.021 15.6297C653.829 15.6297 653.637 15.6297 653.445 15.8212C653.253 15.8212 652.869 15.8212 652.484 15.6297C652.1 15.4382 652.292 15.2467 652.484 15.0552L652.676 14.8636C652.484 12.5654 652.676 10.6502 652.1 8.54347L651.908 8.73499C651.523 9.11803 650.947 9.6926 650.563 10.0756C649.217 11.7993 647.488 13.14 645.758 14.4806C645.566 14.6721 645.374 14.6721 645.182 14.6721C644.99 14.6721 644.99 14.4806 644.99 14.2891C644.99 14.0976 644.99 13.906 644.798 13.906C643.453 12.7569 642.3 11.4163 640.954 10.0756C640.762 9.88412 640.378 9.50108 639.994 9.11804C639.801 10.2672 639.801 11.4163 639.609 12.3739C639.417 13.523 639.225 14.6721 639.033 15.6297C638.841 15.6297 638.648 15.6297 638.648 15.4382C638.456 15.2467 638.072 15.2467 637.688 15.2467C637.303 15.2467 637.303 15.2467 637.303 15.2467C636.15 15.0552 634.997 15.0552 634.036 14.8636C633.652 13.906 633.46 13.906 633.076 13.7145Z" fill="#8E61F1"/>
<path d="M647.673 2.21855C647.673 2.41007 647.673 2.60158 647.673 2.7931C647.481 3.94222 647.289 5.09135 647.096 6.04895C647.096 6.43199 646.712 6.62351 646.136 6.24047C645.943 6.04895 645.943 6.04894 645.943 5.6659C645.943 5.09134 646.136 4.51678 646.136 3.94222C646.136 3.36766 646.328 2.79311 646.52 2.21855C646.52 2.02703 646.712 1.64399 646.712 1.26095L646.904 1.06942C647.096 0.877901 647.289 0.877901 647.289 1.06942C647.481 1.8355 647.673 2.02703 647.673 2.21855Z" fill="#8E61F1"/>
<path d="M641.706 31.5147C641.706 31.7063 641.706 31.7063 641.706 31.7063C641.514 32.0893 641.322 32.8554 641.129 33.2384C640.937 33.813 640.745 34.3875 640.169 34.9621C640.169 35.1536 639.976 35.1536 639.976 35.3451C639.784 35.5367 639.784 35.5367 639.592 35.3451C639.4 35.3451 639.4 35.1536 639.4 34.9621C639.592 34.3875 639.592 33.6215 639.784 33.2384C639.976 32.6639 640.169 31.8978 640.361 31.3232C640.361 31.1317 640.553 30.9402 640.937 30.9402C641.129 30.9402 641.129 30.9402 641.322 31.1317C641.514 31.1317 641.706 31.3232 641.706 31.5147Z" fill="#8E61F1"/>
<path d="M660.369 7.59076C660.369 7.59076 660.369 7.78228 660.176 7.78228C659.984 7.9738 659.984 7.97381 659.792 8.16533C659.216 8.73989 658.447 9.69748 657.87 10.4636C657.678 10.6551 657.486 10.8466 657.294 11.0381C657.102 11.2296 656.717 11.2297 656.141 10.8466C655.949 10.6551 655.949 10.4636 656.141 10.272C656.333 10.0805 656.717 9.69749 657.102 9.31445C658.063 8.73989 658.639 8.16532 659.6 7.59076C659.792 7.59076 659.792 7.39925 659.984 7.39925C659.984 7.01621 660.369 7.39924 660.369 7.59076Z" fill="#8E61F1"/>
<path d="M631.141 6.63086C631.334 6.82238 631.526 6.82239 631.718 7.01391C632.679 7.97151 633.639 8.54606 634.6 9.50366C634.985 9.69518 634.985 9.88671 634.792 10.0782C634.6 10.4613 634.216 10.4613 633.832 10.2697C633.639 10.0782 633.447 9.8867 632.871 9.69518C631.91 9.12062 631.333 8.16303 630.565 7.20543C631.141 7.01391 630.757 6.82238 631.141 6.63086Z" fill="#8E61F1"/>
<path d="M633.439 26.7235C633.439 26.915 633.439 27.1065 633.247 27.1065C633.055 27.298 632.863 27.298 632.671 27.4896C631.518 28.0641 630.365 28.8302 629.212 29.4048C629.212 29.4048 629.02 29.4048 629.02 29.5963H628.827C628.635 29.5963 628.827 29.4048 628.827 29.2132C628.827 29.0217 629.02 29.0217 629.02 29.0217C629.596 28.6387 630.172 28.0641 630.749 27.6811C631.325 27.298 632.286 26.7235 633.055 26.3404C633.247 26.3404 633.247 26.1489 633.439 26.1489C633.439 26.3404 633.439 26.532 633.439 26.7235Z" fill="#8E61F1"/>
<path d="M662.286 20.5986C661.133 20.5986 659.98 20.407 659.211 20.2155C658.827 20.2155 658.635 19.8325 658.827 19.641C658.827 19.4494 659.019 19.2579 659.211 19.4494C659.403 19.4494 659.788 19.4494 660.172 19.4494C661.325 19.641 662.478 19.641 663.247 20.024H663.439L663.631 20.2155L663.439 20.407C663.054 20.5986 662.67 20.5986 662.286 20.5986Z" fill="#8E61F1"/>
<path d="M631.705 18.6849C631.513 19.068 631.129 19.068 630.552 19.068C630.168 19.068 629.399 19.068 629.015 18.8764C628.439 18.8764 627.67 18.6849 627.286 18.4934H627.093L626.901 18.3019L627.093 18.1104C628.054 18.1104 628.823 18.1104 629.976 18.1104C630.36 18.1104 630.552 18.1104 631.129 18.1104C631.129 18.3019 631.513 18.3019 631.705 18.6849Z" fill="#8E61F1"/>
<path d="M656.713 30.1747C656.713 30.1747 656.521 30.1747 656.521 29.9832C655.368 28.8341 654.599 28.068 653.446 26.9189C653.446 26.9189 653.446 26.9189 653.254 26.7274C653.062 26.5358 653.254 26.3443 653.446 26.1528C653.638 25.9613 653.831 26.1528 654.023 26.3443C654.215 26.5359 654.407 26.9189 654.599 27.3019C654.984 27.685 655.56 28.451 655.944 28.8341C656.137 29.0256 656.329 29.4086 656.521 29.7917C656.713 29.7917 656.713 29.9832 656.713 30.1747Z" fill="#8E61F1"/>
</svg>
