<svg width="846" height="192" viewBox="0 0 846 192" fill="none" xmlns="http://www.w3.org/2000/svg">
<path d="M120.567 31.458C120.567 31.252 120.383 30.84 120.015 30.84C120.015 30.84 120.015 30.84 119.831 30.84C119.463 30.84 117.44 30.634 115.968 28.986C114.68 27.544 114.128 25.69 114.128 22.806C114.128 22.394 114.128 22.188 114.128 21.982C114.128 21.776 113.944 21.364 113.576 21.364C113.392 21.364 113.025 21.57 113.025 21.982C113.025 22.188 113.025 22.394 113.025 22.6C113.025 23.836 112.657 26.926 111.185 28.574C110.449 29.398 109.345 30.016 108.058 30.016C107.874 30.016 107.506 30.222 107.506 30.634C107.506 30.84 107.69 31.252 107.874 31.252C108.058 31.252 113.025 31.87 113.025 38.462C113.025 38.668 113.209 38.874 113.392 39.08C113.576 39.08 113.944 38.874 113.944 38.668C113.944 38.462 114.864 32.076 119.463 31.87H119.647C120.383 32.076 120.567 31.87 120.567 31.458Z" fill="#8E61F1"/>
<path d="M133.986 50.0288C133.986 49.6168 133.618 49.6168 133.434 49.6168C133.434 49.6168 133.434 49.6168 133.25 49.6168C132.882 49.6168 130.859 50.0288 129.019 48.7928C127.548 47.7628 126.444 45.7028 126.076 43.0248C126.076 42.6128 125.892 42.4068 125.892 42.2008C125.892 41.9948 125.524 41.7888 125.34 41.7888C125.156 41.7888 124.972 42.2008 124.972 42.4068C124.972 42.6128 124.972 42.8188 125.156 43.0248C125.34 44.2608 125.524 47.3508 124.42 49.6168C123.868 50.6468 122.765 51.4708 121.477 51.6768C121.293 51.6768 121.109 52.0888 121.109 52.2948C121.109 52.5008 121.477 52.9128 121.661 52.7068C121.845 52.7068 126.996 52.0888 128.283 58.8868C128.283 59.0928 128.467 59.2988 128.835 59.2988C129.019 59.2988 129.387 59.0928 129.203 58.6808C129.203 58.4748 129.019 51.6768 133.618 50.4408H133.802C133.802 50.6468 133.986 50.4408 133.986 50.0288Z" fill="#8E61F1"/>
<path d="M2.71169 107.987C2.52772 107.575 2.52772 106.957 2.71169 106.545C3.07961 105.515 3.44752 104.485 3.9994 103.455C4.18337 102.837 4.36733 102.219 4.73525 101.601C5.28713 100.159 5.83901 98.7169 6.57486 97.4809C7.49466 95.4209 8.59842 93.3609 9.33427 91.3009C9.70219 90.0649 10.2541 88.8289 10.622 87.5929C10.9899 86.5629 11.5418 85.5329 11.9097 84.5029C11.9097 84.2969 12.0937 84.2969 12.0937 84.2969C13.1974 83.0609 14.3012 82.0309 15.405 81.0009C15.5889 80.7949 15.7729 80.5889 15.7729 80.1769C15.9569 79.3529 15.9569 78.3229 16.1408 77.4989C16.3248 76.6749 16.3248 76.6749 17.0606 76.8809C17.2446 76.8809 17.6125 77.0869 17.7965 77.0869C18.1644 77.2929 18.1644 77.2929 17.9804 77.7049C17.9804 77.9109 17.7965 77.9109 17.7965 78.1169C17.4285 78.7349 17.2446 79.1469 16.8767 79.7649C16.6927 79.9709 16.6927 80.3829 16.5087 80.5889C16.3248 82.0309 16.3248 83.2669 16.5087 84.7089C16.5087 85.1209 16.5087 85.3269 16.5087 85.7389C16.5087 85.9449 16.5087 86.1509 16.3248 86.3569L16.1408 86.5629C15.405 88.8289 14.6691 91.3009 13.9333 93.5669C13.3814 95.4209 12.6456 97.0689 11.9097 98.7169C11.3578 99.9529 10.806 101.395 10.2541 102.837C9.70219 104.073 9.33428 105.515 8.78239 106.957C8.41447 107.781 8.04654 108.399 7.49466 109.223L7.67862 109.429C7.86258 109.841 7.86258 110.253 7.49466 110.459C7.3107 110.665 7.31071 110.871 7.12675 111.077V111.283C6.75882 111.901 6.39091 112.519 6.02298 112.931C6.20694 113.961 6.02298 114.991 5.65505 116.021C5.28713 116.639 4.36734 117.463 3.26357 117.257C2.52773 117.051 1.79188 116.845 1.05604 116.639C0.688115 116.639 0.32019 116.021 0.32019 115.403C0.32019 114.991 0.320202 114.579 0.504162 114.373C0.872084 113.549 1.24 112.931 1.60792 112.313C1.79188 112.107 1.79188 111.901 1.60792 111.695C1.42396 111.283 1.60792 110.665 1.60792 110.253C1.60792 110.047 1.79188 110.047 1.79188 109.841C1.97584 109.635 1.97584 109.429 1.97584 109.223C2.1598 108.811 2.34376 108.399 2.71169 107.987ZM12.0937 85.1209C12.0937 85.3269 11.9097 85.5329 11.9097 85.5329C11.7258 86.3569 11.3578 87.1809 11.1739 87.7989C10.622 89.6529 10.0701 91.7129 9.15031 93.5669C8.41447 95.2149 7.67863 96.6569 6.94279 98.3049C6.57487 99.3349 6.02298 100.159 5.65505 101.189C5.10317 102.631 4.55129 103.867 3.9994 105.309C3.81544 105.721 3.63149 106.133 3.63149 106.545C3.44753 106.957 3.63148 107.163 3.9994 107.369C4.36733 107.575 4.73526 107.575 5.10318 107.781C5.10318 107.781 5.10318 107.781 5.10318 107.575C5.65506 105.927 6.3909 104.279 7.12675 102.425C7.86259 100.777 8.59842 98.9229 9.33427 97.2749C10.0701 95.6269 10.622 93.7729 11.3578 92.1249C12.0937 90.2709 12.8295 88.4169 13.5654 86.5629C13.7493 86.3569 13.7493 85.9449 13.9333 85.5329C13.1974 86.1509 12.6456 85.7389 12.0937 85.1209ZM14.6691 85.9449C14.4852 86.3569 14.4852 86.5629 14.4852 86.7689C13.7493 88.8289 13.0135 90.8889 12.2776 92.9489C11.9097 93.9789 11.5418 94.8029 11.1739 95.8329C10.438 97.4809 9.88615 99.1289 9.15031 100.983C8.23051 103.043 7.49466 105.103 6.57486 107.163C6.3909 107.575 6.20694 107.987 6.20694 108.399C6.57486 108.605 6.94278 108.399 7.3107 108.193C7.49466 107.987 7.86259 107.987 8.04655 107.781C8.96635 105.515 9.7022 103.455 10.622 101.189C10.9899 100.159 11.5418 99.1289 11.9097 97.8929C12.2776 96.8629 12.8295 95.8329 13.1974 94.5969C14.1172 91.9189 15.0371 89.4469 15.7729 86.7689V86.5629C15.405 86.5629 15.0371 86.3569 14.6691 85.9449ZM1.60792 115.197C2.15981 115.403 2.52772 115.403 3.0796 115.609C3.44752 115.609 3.81546 115.815 4.18338 115.815C4.73526 115.815 5.28714 115.403 5.28714 114.785C5.28714 114.373 5.28714 114.167 5.4711 113.755C5.4711 113.549 5.4711 113.549 5.4711 113.343C4.18337 113.549 3.07961 113.549 2.34377 112.313C1.79189 112.931 1.42396 114.579 1.60792 115.197ZM16.1408 81.2069C15.405 81.6189 14.8531 82.2369 14.3012 82.8549C13.7493 83.4729 13.1974 84.0909 12.6456 84.5029C13.0135 85.1209 13.5654 85.1209 13.9333 84.9149C14.1172 84.7089 14.3012 84.7089 14.4852 84.5029C14.4852 84.2969 14.6691 84.2969 14.8531 84.2969L15.037 84.5029C15.037 84.7089 15.037 84.9149 15.037 85.1209C15.221 85.5329 15.405 85.7389 15.7729 85.5329C15.9569 85.5329 15.9569 85.5329 16.1408 85.3269C16.1408 84.2969 16.1408 82.8549 16.1408 81.2069ZM2.89564 109.017C3.0796 109.223 3.0796 109.223 3.0796 109.223L3.26357 109.429C4.36734 109.841 5.28714 110.047 6.3909 110.047C6.75882 110.047 6.94278 110.047 7.12675 109.635C7.12675 109.429 6.94279 109.429 6.94279 109.223C6.3909 109.429 5.83902 109.429 5.28714 109.223C4.5513 109.017 3.81544 108.811 3.0796 108.605C3.26356 108.811 3.0796 109.017 2.89564 109.017ZM4.91921 112.725C4.36733 112.519 3.81545 112.519 3.44753 112.107C3.07961 111.695 2.52772 111.489 2.1598 111.077C2.1598 112.313 3.81544 113.137 4.91921 112.725ZM6.3909 111.489C5.28714 111.901 4.18337 111.489 3.0796 110.871C4.18337 112.107 5.83902 112.107 6.3909 111.489ZM17.0606 77.4989C16.8767 77.4989 16.8767 77.4989 16.6927 77.4989C16.6927 77.7049 16.6927 77.7049 16.6927 77.9109C17.0606 77.4989 17.0606 77.4989 17.0606 77.4989Z" fill="#8E61F1"/>
<path d="M71.6635 186.185C71.1116 185.979 70.5597 185.773 70.1918 185.567C69.272 185.155 69.272 184.331 69.6399 183.507C69.8238 183.095 70.1918 182.683 70.1918 182.271C70.1918 181.241 69.8238 180.211 69.088 179.387C68.5361 178.769 67.9842 178.357 67.4324 177.945C66.6965 177.327 65.7767 176.915 65.0409 176.297C63.9371 175.473 63.0173 174.649 62.0975 173.619C60.6258 171.765 59.89 169.499 60.0739 167.027C60.0739 165.173 60.4419 163.319 61.1777 161.465C62.2815 158.169 64.305 155.903 67.0644 154.667C68.7201 153.843 70.5597 153.225 72.3993 153.019C76.0785 152.401 79.3898 153.637 81.7813 156.933C83.8049 159.405 84.9086 162.495 85.0926 165.791C85.0926 167.027 84.9086 168.057 84.5407 169.293C84.1728 170.323 83.6209 171.353 83.069 172.177C82.885 172.383 82.8851 172.383 82.7011 172.589C81.5973 173.825 81.0454 175.473 80.8615 177.121C80.8615 177.533 80.6775 177.945 80.4936 178.563C80.4936 178.769 80.4936 179.181 80.4936 179.181C80.8615 179.593 81.2294 179.799 81.5973 180.211C81.9653 180.829 81.9653 181.447 81.5973 182.065C81.2294 182.477 81.0455 182.889 80.6775 183.301C80.8615 183.919 80.8615 184.537 80.4936 185.155C80.3096 185.361 80.3096 185.567 80.1256 185.979C79.9417 186.185 80.1256 186.391 80.1256 186.597C80.4936 187.215 80.3096 187.627 80.1256 188.245C79.5738 189.481 78.8379 190.511 77.5502 190.923C76.6304 191.335 75.5266 191.541 74.6068 191.541C74.2389 191.541 74.0549 191.541 73.687 191.335C73.1351 191.129 72.5833 190.511 72.7672 189.687C72.7672 189.275 72.5833 189.069 72.2153 188.863C71.6635 188.657 71.6635 188.039 71.6635 187.421C71.6635 187.009 71.6635 186.597 71.6635 186.185ZM72.3993 169.911C72.2153 169.705 72.0314 169.499 72.0314 169.293C71.1116 168.057 70.5597 166.821 70.3757 165.173C70.3757 164.967 70.3757 164.555 70.3757 164.349C70.5597 163.731 71.1116 163.319 71.6635 163.525C71.8474 163.525 72.0314 163.731 72.2153 163.937C72.5833 164.349 72.7672 164.761 72.9512 165.173C73.5031 166.203 73.871 167.439 74.0549 168.675C74.0549 168.881 74.0549 169.293 74.4229 169.293C74.7908 169.293 75.1587 169.499 75.5266 169.293C75.5266 169.087 75.5266 169.087 75.5266 169.087C75.7106 167.851 75.8945 166.409 76.2625 165.173C76.4464 164.555 76.8143 163.937 77.5502 163.731C78.1021 163.525 78.47 163.731 78.8379 164.143C79.0219 164.555 79.2058 165.173 79.2058 165.585C79.2058 166.409 79.0219 167.233 78.8379 167.851C78.47 168.881 77.9181 169.911 76.9983 170.323C76.6304 170.529 76.6304 170.735 76.6304 170.941C76.6304 171.765 76.8144 172.795 76.8144 173.619C76.9983 175.061 77.1823 176.503 77.3662 177.739C77.3662 178.357 77.5502 178.769 77.5502 179.387C78.1021 179.181 78.654 179.181 79.2058 179.181C80.1256 179.181 80.1256 178.769 79.9417 177.945C79.9417 177.739 79.7577 177.533 79.7577 177.327C79.7577 176.915 79.5738 176.503 79.7577 176.091C79.9417 174.031 80.4936 172.177 81.5973 170.735C81.9653 170.323 82.3332 169.705 82.5171 169.293C83.6209 167.645 83.9888 165.791 83.6209 163.731C83.4369 162.907 83.253 161.877 82.8851 161.053C81.9653 158.581 80.4936 156.521 78.47 155.285C76.8143 154.255 75.1587 154.049 73.3191 154.255C71.8474 154.461 70.5597 154.873 69.272 155.491C66.1446 156.727 63.9371 158.993 62.8333 162.495C62.4654 163.731 62.0975 165.173 61.9135 166.615C61.7296 168.675 62.2815 170.529 63.5692 172.177C64.489 173.413 65.7767 174.237 67.0644 175.061C67.9842 175.679 68.904 176.297 69.8238 177.121C70.7436 177.945 71.4795 179.181 71.8474 180.417C71.8474 180.623 72.0314 180.829 72.0314 181.035C72.5833 180.829 73.1351 180.623 73.687 180.417C73.871 179.593 73.687 178.769 73.5031 177.945C72.9512 176.297 72.2153 174.649 71.4795 173.001C71.2955 172.589 70.9276 171.971 70.3757 171.971C70.1918 171.971 70.0078 171.765 69.8238 171.765C68.3522 170.941 67.0644 169.705 66.1446 168.057C65.9607 167.645 65.7767 167.233 65.7767 166.615C65.7767 165.791 66.1446 165.585 66.6965 165.585C67.2484 165.585 67.8003 165.791 68.3522 166.203C69.4559 167.027 70.1918 168.263 70.9276 169.499C71.1116 169.911 71.2955 170.117 71.4795 170.529C71.8474 170.735 72.2153 170.529 72.3993 169.911ZM73.687 170.735C73.3191 171.559 72.7672 172.177 72.0314 172.589C72.2153 172.795 72.2153 173.001 72.2153 173.207C73.3191 175.473 74.4229 177.739 74.6068 180.417C75.1587 180.211 75.7106 180.005 76.4464 179.799C75.8945 176.915 75.3427 174.031 75.1587 171.147C74.6068 170.941 74.2389 170.735 73.687 170.735ZM80.6775 180.623C80.3096 180.211 79.7577 180.005 79.3898 180.211C78.47 180.623 77.5502 181.035 76.6304 181.447C75.5266 182.065 74.2389 182.477 73.1351 183.095C72.3993 183.301 71.8474 183.507 70.9276 183.713C70.9276 183.713 70.7436 183.919 70.7436 184.125C71.6635 184.743 72.5833 184.537 73.5031 184.537C75.8945 184.125 78.1021 183.095 80.1256 181.447C80.4936 181.035 80.4936 180.829 80.6775 180.623ZM79.5738 183.713C77.3662 185.361 75.1587 186.185 72.5833 186.185C72.3993 187.421 72.7672 187.833 73.871 187.627C73.871 187.627 73.871 187.627 74.0549 187.627C75.3427 187.009 76.8144 186.597 78.1021 185.979C78.8379 185.773 79.3898 184.949 79.5738 183.713ZM73.871 189.069C73.871 189.687 73.871 189.893 74.4229 189.893C74.9747 189.893 75.5266 189.893 76.2625 189.687C77.5502 189.481 78.47 188.657 79.3898 187.627C79.5738 187.421 79.7577 187.009 79.5738 186.597C77.7342 187.833 75.8945 188.451 73.871 189.069ZM69.272 170.323C68.5361 169.293 67.9842 168.263 66.8805 167.645C67.2484 168.469 68.1682 169.705 69.272 170.323ZM77.5502 165.585C76.9983 166.203 76.6304 167.645 76.8144 168.263C77.3662 167.439 77.5502 166.615 77.5502 165.585Z" fill="#8E61F1"/>
<path d="M76.2515 137.929C76.8034 138.547 76.9873 139.371 76.8034 140.195C76.2515 142.461 75.6996 144.727 75.1477 146.993C74.9638 147.817 74.7798 147.817 74.044 147.817C73.4921 147.611 73.1241 147.199 73.3081 146.581C73.86 144.315 74.4119 141.843 74.9638 139.577C75.1477 138.753 75.6996 138.135 76.2515 137.929Z" fill="#8E61F1"/>
<path d="M63.2015 137.929C63.7534 138.135 63.9374 138.547 63.9374 138.959C64.4893 140.607 64.8572 142.255 65.2251 143.697C65.593 144.933 65.777 146.169 66.1449 147.405C66.1449 147.611 66.1449 148.023 66.3289 148.229C66.1449 148.229 65.961 148.435 65.777 148.435C65.2251 148.641 64.8572 148.435 64.6732 147.817C64.1213 145.551 63.2016 143.079 63.0176 140.607C63.0176 139.783 63.0176 139.165 62.8336 138.341C63.0176 138.341 63.2015 138.135 63.2015 137.929Z" fill="#8E61F1"/>
<path d="M83.4236 142.471C83.4236 142.883 83.4236 143.295 83.2397 143.501C82.8718 144.737 82.5038 145.973 81.768 147.003C81.2161 147.621 80.8482 148.445 80.2963 149.269C80.1123 149.475 79.9284 149.681 79.5605 149.681C78.8246 149.681 78.2727 149.063 78.6407 148.239C78.6407 148.033 78.8246 148.033 78.8246 147.827C79.5605 146.797 80.1123 145.767 80.8482 144.737C81.4001 143.913 82.1359 143.295 82.6878 142.677C83.0557 142.677 83.2397 142.677 83.4236 142.471Z" fill="#8E61F1"/>
<path d="M61.9164 153.183C61.5485 153.183 61.3645 153.389 61.3645 153.389C60.8127 153.183 60.0768 153.183 59.5249 152.977C58.0532 152.565 56.5816 151.947 55.1099 151.329C54.9259 151.329 54.9259 151.329 54.742 151.123C54.374 150.917 54.1901 150.505 54.1901 150.093C54.374 149.681 54.7419 149.269 55.1099 149.475C56.7655 150.093 58.4212 150.505 60.0768 151.329C60.8126 151.741 61.3645 152.359 61.9164 153.183Z" fill="#8E61F1"/>
<path d="M824.362 102.013C824.178 101.601 823.994 101.395 823.81 100.983C823.626 100.365 823.81 99.953 824.178 99.747C824.362 99.747 824.73 99.5409 824.914 99.335C825.281 98.717 825.465 98.0989 825.465 97.4809C825.465 97.0689 825.281 96.451 825.281 96.039C825.097 95.421 824.913 94.8029 824.729 94.1849C824.362 93.361 824.178 92.537 824.178 91.507C823.994 89.859 824.546 88.623 825.465 87.387C826.201 86.563 826.937 85.7389 827.857 85.1209C829.512 84.0909 831.352 83.679 833.192 84.297C834.296 84.709 835.399 85.121 836.319 85.739C838.343 87.181 839.446 89.035 839.63 91.713C839.63 93.773 839.262 95.8329 838.159 97.4809C837.791 98.0989 837.239 98.511 836.687 98.923C836.135 99.335 835.583 99.541 834.847 99.747C834.663 99.747 834.663 99.747 834.479 99.747C833.56 99.953 832.64 100.365 832.088 101.189C831.904 101.395 831.72 101.601 831.536 101.807C831.352 102.013 831.352 102.013 831.168 102.013C831.168 102.425 831.352 102.631 831.352 103.043C831.352 103.455 831.168 103.867 830.616 103.867C830.248 103.867 830.064 103.867 829.696 104.073C829.512 104.485 829.329 104.691 828.961 104.897C828.777 104.897 828.777 105.103 828.593 105.103C828.409 105.103 828.409 105.309 828.409 105.515C828.409 105.927 828.041 106.133 827.857 106.339C827.121 106.751 826.385 106.751 825.649 106.545C825.097 106.339 824.546 105.927 823.994 105.515C823.81 105.309 823.626 105.309 823.626 105.103C823.442 104.691 823.442 104.279 823.626 103.867C823.81 103.661 823.81 103.455 823.626 103.249C823.442 102.837 823.626 102.631 823.81 102.219C824.178 102.425 824.178 102.219 824.362 102.013ZM830.432 94.1849C830.432 93.979 830.432 93.773 830.432 93.773C830.432 92.743 830.616 91.919 830.984 91.095C830.984 90.889 831.168 90.683 831.352 90.683C831.72 90.477 832.088 90.477 832.272 90.889C832.272 91.095 832.272 91.0949 832.272 91.3009C832.272 91.5069 832.272 91.919 832.272 92.125C832.088 92.949 831.904 93.5669 831.536 94.3909C831.536 94.5969 831.352 94.597 831.536 94.803C831.72 95.009 831.72 95.215 832.088 95.215C832.088 95.215 832.088 95.215 832.272 95.009C832.824 94.391 833.376 93.7729 833.928 93.3609C834.295 93.1549 834.663 93.155 835.031 93.155C835.399 93.361 835.583 93.567 835.399 93.979C835.399 94.391 835.215 94.597 835.031 94.803C834.663 95.215 834.479 95.421 834.112 95.833C833.56 96.245 833.008 96.451 832.272 96.245C832.088 96.245 831.904 96.2449 831.904 96.4509C831.72 96.8629 831.352 97.275 831.168 97.893C830.8 98.717 830.432 99.335 829.88 100.159C829.697 100.365 829.512 100.777 829.329 100.983C829.696 101.189 829.88 101.395 830.248 101.601C830.8 102.013 830.8 101.807 830.984 101.395C830.984 101.189 830.984 101.189 831.168 100.983C831.352 100.777 831.352 100.571 831.536 100.365C832.272 99.5409 833.192 98.7169 834.295 98.5109C834.663 98.5109 835.031 98.3049 835.215 98.3049C836.319 97.893 837.239 97.275 837.607 96.039C837.791 95.421 837.975 95.0089 838.159 94.3909C838.527 92.7429 838.527 91.095 837.975 89.653C837.607 88.417 836.871 87.593 835.767 86.975C835.031 86.357 834.112 86.151 833.376 85.739C831.352 84.915 829.513 85.121 827.673 86.357C826.937 86.769 826.385 87.387 825.833 88.005C824.914 89.035 824.546 90.065 824.729 91.507C824.913 92.537 825.097 93.3609 825.465 94.3909C825.649 95.0089 825.833 95.833 826.017 96.657C826.201 97.481 826.201 98.305 825.833 99.129C825.833 99.335 825.833 99.3349 825.649 99.5409C826.017 99.7469 826.385 99.953 826.569 99.953C826.937 99.541 827.121 99.129 827.305 98.717C827.673 97.687 827.857 96.4509 828.041 95.4209C828.041 95.0089 828.225 94.803 827.857 94.597C827.857 94.597 827.673 94.391 827.673 94.1849C827.305 93.155 827.121 91.919 827.121 90.683C827.121 90.271 827.305 90.065 827.489 89.859C827.673 89.447 828.041 89.447 828.409 89.653C828.777 89.859 828.961 90.271 828.961 90.683C829.145 91.507 829.145 92.537 829.145 93.567C829.145 93.773 829.145 93.9789 829.145 94.3909C829.88 94.5969 830.248 94.391 830.432 94.1849ZM830.8 95.215C830.248 95.4209 829.88 95.6269 829.329 95.4209C829.329 95.6269 829.329 95.627 829.329 95.833C828.961 97.481 828.777 98.9229 828.041 100.365C828.409 100.571 828.777 100.777 829.145 100.777C829.88 99.129 830.616 97.481 831.536 95.833C831.168 95.833 830.984 95.627 830.8 95.215ZM830.8 103.249C830.8 102.837 830.616 102.631 830.248 102.425C829.696 102.219 829.145 102.013 828.409 101.807C827.673 101.601 826.937 101.395 826.201 100.983C825.833 100.777 825.465 100.571 824.914 100.365C824.914 100.365 824.73 100.365 824.546 100.571C824.73 101.189 825.281 101.601 825.833 102.013C827.121 102.837 828.593 103.249 830.248 103.455C830.432 103.249 830.616 103.249 830.8 103.249ZM829.145 104.279C827.489 104.073 826.017 103.455 824.914 102.425C824.362 103.043 824.362 103.455 824.914 103.661C825.833 104.073 826.569 104.279 827.489 104.691C828.041 104.897 828.593 104.691 829.145 104.279ZM824.546 104.485C824.362 104.897 824.362 104.897 824.546 105.103C824.913 105.309 825.097 105.515 825.465 105.721C826.201 106.133 826.937 106.133 827.673 106.133C827.857 106.133 828.041 105.927 828.041 105.721C826.753 105.515 825.649 104.897 824.546 104.485ZM828.777 93.155C828.777 92.331 828.961 91.507 828.593 90.683C828.409 91.301 828.409 92.331 828.777 93.155ZM834.479 94.3909C834.112 94.3909 833.376 95.0089 833.192 95.4209C833.744 95.2149 834.112 94.8029 834.479 94.3909Z" fill="#8E61F1"/>
<path d="M843.48 80.3726C843.48 80.9906 843.296 81.4026 842.928 81.6086C841.824 82.4326 840.904 83.4626 839.8 84.2866C839.433 84.4926 839.249 84.4926 839.065 84.2866C838.881 84.0806 838.881 83.6686 839.249 83.2566C840.352 82.2266 841.456 81.4026 842.56 80.5786C842.744 80.1666 843.112 80.1666 843.48 80.3726Z" fill="#8E61F1"/>
<path d="M837.24 74.5841C837.424 74.9961 837.24 75.2021 837.24 75.4081C836.872 76.4381 836.504 77.4681 836.136 78.2921C835.953 79.1161 835.585 79.7341 835.217 80.5581C835.217 80.7641 835.033 80.9701 835.033 80.9701C834.849 80.9701 834.849 80.9701 834.665 80.7641C834.297 80.5581 834.297 80.3521 834.297 79.9401C834.849 78.4981 835.217 77.0561 835.953 75.8201C836.137 75.4081 836.504 74.9961 836.688 74.7901C836.872 74.7901 837.056 74.5841 837.24 74.5841Z" fill="#8E61F1"/>
<path d="M845.5 85.7286C845.316 85.9346 845.132 86.1406 845.132 86.1406C844.58 86.5526 843.844 86.9646 843.108 87.1706C842.557 87.3766 842.189 87.3766 841.637 87.5826C841.453 87.5826 841.269 87.5826 841.085 87.5826C840.717 87.1706 840.717 86.7587 841.085 86.3467C841.085 86.3467 841.269 86.3466 841.269 86.1406C842.005 85.9346 842.741 85.7286 843.292 85.5226C843.844 85.3166 844.396 85.3167 844.948 85.3167C845.316 85.7287 845.316 85.7286 845.5 85.7286Z" fill="#8E61F1"/>
<path d="M831.17 81.588C830.986 81.588 830.802 81.588 830.802 81.382C830.618 80.97 830.25 80.764 830.066 80.352C829.514 79.528 828.962 78.498 828.41 77.674L828.226 77.468C828.042 77.262 828.226 76.85 828.41 76.85C828.594 76.644 828.962 76.644 829.146 77.056C829.698 78.086 830.434 79.116 830.986 80.146C831.17 80.352 831.17 80.764 831.17 81.588Z" fill="#8E61F1"/>
<path d="M779.513 146.334C779.513 146.128 779.329 145.922 779.329 145.51C779.145 145.098 778.961 144.892 778.777 144.48C778.593 144.068 778.226 143.45 778.042 143.038C773.811 133.356 769.579 123.674 765.348 113.992C763.877 110.696 762.405 107.4 761.117 103.898L759.646 100.396C759.094 98.9539 758.542 97.7179 757.99 96.2759C757.622 95.4519 757.254 94.8339 756.702 94.6279C755.966 94.4219 755.414 94.8339 754.863 95.2459C754.679 95.2459 754.679 95.4519 754.495 95.4519C753.759 96.0699 753.575 97.0999 753.943 97.9239C754.127 98.3359 754.311 98.7479 754.495 99.3659L756.518 103.898C757.806 106.988 759.094 110.078 760.381 112.962C762.037 116.67 763.693 120.378 765.348 124.292C767.372 129.03 769.579 133.768 771.603 138.506C771.971 139.33 772.339 140.154 772.707 140.978C773.81 143.244 774.73 145.51 775.466 147.982C775.65 148.6 776.018 149.012 776.386 149.218H776.57C776.938 149.218 777.306 149.218 777.674 149.012C778.226 148.806 778.593 148.394 779.145 147.982C779.329 147.776 779.513 147.57 779.513 147.364L779.881 146.746L779.513 146.334ZM762.037 112.962L761.853 112.55L762.221 112.344L762.405 112.756L762.037 112.962Z" fill="#8E61F1"/>
<path d="M769.941 89.0247C769.941 88.8187 769.941 88.6127 769.757 88.6127C769.573 88.6127 768.653 88.2007 767.918 87.1707C767.366 86.3467 767.366 85.1107 767.734 83.8747C767.734 83.6687 767.734 83.4627 767.734 83.4627C767.734 83.2567 767.734 83.2567 767.55 83.0507C767.366 83.0507 767.366 83.0507 767.182 83.2567C767.182 83.4627 767.182 83.4627 767.182 83.6687C766.998 84.2867 766.63 85.7287 765.526 86.3467C764.974 86.7587 764.422 86.7587 763.87 86.5527C763.686 86.5527 763.686 86.5527 763.502 86.7587C763.502 86.9647 763.502 86.9647 763.686 87.1707C763.87 87.1707 766.262 88.2007 765.526 91.4967C765.526 91.7027 765.526 91.7027 765.71 91.9087C765.894 91.9087 765.894 91.9087 766.078 91.7027C766.078 91.4967 767.366 88.4067 769.573 89.0247C769.757 89.2307 769.941 89.2307 769.941 89.0247Z" fill="#8E61F1"/>
<path d="M728.028 99.7573C728.028 99.5513 728.028 99.5513 727.845 99.5513C727.661 99.5513 726.925 99.3453 726.373 98.5213C726.005 97.9033 726.005 96.8733 726.189 95.8433C726.189 95.6373 726.189 95.6373 726.189 95.6373C726.189 95.4313 726.189 95.4313 726.005 95.4313C725.821 95.4313 725.821 95.4313 725.821 95.6373V95.8433C725.637 96.2553 725.269 97.4913 724.533 98.1093C724.165 98.3153 723.613 98.5213 723.245 98.3153C723.062 98.3153 723.062 98.3153 723.062 98.5213C723.062 98.7273 723.062 98.7273 723.245 98.7273C723.245 98.7273 725.269 99.5513 724.717 102.229C724.717 102.435 724.717 102.435 724.901 102.435C725.085 102.435 725.085 102.435 725.085 102.229C725.085 102.023 726.005 99.7573 727.845 100.169C728.028 99.9633 728.028 99.9633 728.028 99.7573Z" fill="#8E61F1"/>
<path d="M779.322 103.053C779.138 102.847 779.322 102.847 779.322 103.053C779.138 102.847 779.138 102.847 779.322 103.053C779.138 102.847 779.138 102.847 779.138 102.847C779.138 102.847 779.138 102.847 778.954 102.847C778.954 102.847 778.954 102.847 778.77 102.847C778.77 102.847 778.77 102.847 778.586 102.847C778.586 102.847 778.586 102.847 778.402 102.847C778.402 102.847 778.402 102.847 778.218 102.847C778.218 102.847 778.219 102.847 778.035 102.847C778.035 102.847 778.035 102.847 777.851 102.847C777.851 102.847 777.851 102.847 777.851 102.641C777.851 102.641 777.851 102.641 777.851 102.435C777.851 102.435 777.851 102.435 777.851 102.229C777.851 102.229 777.851 102.229 777.851 102.023C777.851 102.023 777.851 102.023 777.851 101.817C777.851 101.817 777.851 101.817 777.851 101.611C777.851 101.611 777.851 101.611 777.851 101.405V101.199V100.993C777.851 100.993 777.851 100.993 777.851 100.787C777.851 100.787 777.851 100.787 777.851 100.581V100.375C777.851 100.375 777.851 100.375 777.851 100.169V99.9632V99.7572V99.5512V99.3452C777.851 99.1392 777.851 98.9332 777.851 98.7272C777.851 98.7272 777.851 98.7272 777.667 98.7272C777.667 98.7272 777.667 98.7272 777.667 98.9332V99.1392C777.667 99.1392 777.667 99.1392 777.667 99.3452V99.5512V99.7572C777.667 99.7572 777.667 99.7572 777.667 99.9632C777.667 99.9632 777.483 99.9632 777.483 100.169C777.483 100.169 777.483 100.169 777.299 100.169C777.299 100.169 777.299 100.169 777.115 100.169C777.115 100.169 777.115 100.169 776.931 100.169C776.931 100.169 776.931 100.169 776.747 100.169H776.563H776.379C776.195 100.169 776.195 100.169 776.011 100.169H775.827C775.827 100.169 775.827 100.169 775.643 100.169C775.643 100.169 775.643 100.169 775.459 100.169C775.459 100.169 775.459 100.169 775.275 100.169H775.091C775.091 100.169 775.091 100.169 775.275 100.169H775.459H775.643H775.827C775.827 100.169 775.827 100.169 776.011 100.169H776.195H776.379H776.563H776.747C776.747 100.169 776.931 100.169 776.931 100.375L777.115 100.581C777.115 100.581 777.115 100.581 777.115 100.787C777.115 100.787 777.115 100.787 777.115 100.993C777.115 100.993 777.115 100.993 777.115 101.199C777.115 101.199 777.115 101.199 777.115 101.405V101.611C777.115 101.611 777.115 101.611 777.115 101.817C777.115 101.817 777.115 101.817 777.115 102.023V101.817V101.611V101.405V101.199C777.115 101.199 777.115 101.199 777.115 100.993V100.787C777.115 100.787 777.115 100.787 777.115 100.581C777.115 100.581 777.115 100.581 777.115 100.375C777.115 100.375 777.115 100.169 777.299 100.169C777.299 100.169 777.299 100.169 777.483 99.9632C777.483 99.9632 777.667 99.9632 777.667 99.7572C777.667 99.7572 777.851 99.7572 777.851 99.5512H778.035H778.218H778.402C778.402 99.5512 778.402 99.5512 778.586 99.5512H778.77C778.77 99.5512 778.77 99.5512 778.954 99.5512H779.138H779.322C779.322 99.5512 779.322 99.5512 779.506 99.5512H779.69C778.954 103.259 779.138 103.259 779.322 103.053C779.138 103.259 779.138 103.259 779.322 103.053ZM777.667 102.641C777.483 102.435 777.483 102.641 777.667 102.641C777.483 102.435 777.483 102.435 777.667 102.641C777.667 102.435 777.483 102.435 777.667 102.641ZM775.827 99.3452C775.643 99.3452 775.643 99.3452 775.827 99.3452V99.3452ZM775.643 99.3452C775.827 99.3452 775.827 99.3452 775.643 99.3452V99.3452ZM776.931 103.259C776.931 103.053 776.931 103.053 776.931 103.259V103.259ZM777.851 102.847C777.667 102.847 777.667 102.847 777.851 102.847C777.667 102.847 777.483 102.847 777.483 102.847C777.483 102.847 777.483 102.847 777.299 102.847C777.299 102.847 777.299 102.847 777.115 102.847C777.115 102.847 777.115 102.847 777.115 103.053V103.259C777.115 103.259 777.115 103.259 777.115 103.465C777.115 103.465 777.115 103.465 777.115 103.671V103.465V103.259V103.053C777.115 103.053 777.115 103.053 777.115 102.847V102.641C777.115 102.641 777.115 102.641 777.115 102.435V102.229C777.115 102.229 777.115 102.229 777.115 102.023C777.115 102.023 777.115 102.023 777.115 101.817V101.611V101.405C777.115 101.405 777.115 101.199 776.931 101.199C776.931 101.199 776.931 101.199 776.931 100.993C776.931 100.993 776.931 100.993 776.747 100.993C776.747 100.993 776.747 100.993 776.563 100.993C776.563 100.993 776.563 100.993 776.379 100.993H776.195C776.195 100.993 776.195 100.993 776.011 100.993C776.011 100.993 776.011 100.993 775.827 100.993C775.827 100.993 775.827 100.993 776.011 100.993H776.195C776.195 100.993 776.195 100.993 776.379 100.993C776.379 100.993 776.379 100.993 776.563 100.993C776.563 100.993 776.563 100.993 776.747 100.993C776.747 100.993 776.747 100.787 776.931 100.787C776.931 100.787 776.931 100.787 776.931 100.581C776.931 100.581 776.931 100.581 776.931 100.375C776.931 100.375 776.931 100.375 776.931 100.169C776.931 100.169 776.931 100.169 776.931 99.9632C776.931 99.9632 776.931 99.9632 776.931 99.7572C776.931 99.7572 776.931 99.7572 776.931 99.5512C776.931 99.5512 776.931 99.5512 776.931 99.3452C776.931 99.3452 776.931 99.3452 776.931 99.5512C776.931 99.5512 776.931 99.5512 776.931 99.7572C776.931 99.7572 776.931 99.7572 776.931 99.9632V100.169C776.931 100.169 776.931 100.169 776.931 100.375V100.581C776.931 100.581 776.931 100.581 776.931 100.787C776.931 100.787 776.931 100.787 776.931 100.993H777.115C777.115 100.993 777.115 100.993 777.299 100.993C777.667 102.641 777.667 102.641 777.851 102.847Z" fill="#8E61F1"/>
<path d="M750.457 119.142C750.641 119.142 750.641 119.142 750.457 119.142C750.457 118.936 750.457 118.936 750.457 118.936C750.457 118.936 750.457 118.936 750.273 118.936H750.089H749.905C749.905 118.936 749.905 118.936 749.721 118.936C749.721 118.936 749.721 118.936 749.537 118.936C749.537 118.936 749.537 118.936 749.353 118.936C749.353 118.936 749.169 118.936 749.169 118.73H748.985C748.985 118.73 748.801 118.73 748.801 118.524H748.617H748.433C748.433 118.524 748.433 118.524 748.249 118.524H748.065H747.881H747.698C747.698 118.524 747.514 118.524 747.514 118.318C747.514 118.318 747.514 118.318 747.33 118.318H747.146C747.146 118.318 746.962 118.318 746.962 118.112C746.962 118.112 746.962 118.112 746.778 118.112C746.778 118.112 746.594 118.112 746.594 117.906L746.41 117.7C746.41 117.7 746.41 117.7 746.226 117.494C746.226 117.494 746.226 117.494 746.226 117.288C746.226 117.288 746.226 117.082 746.042 117.082C746.042 117.082 746.042 117.082 746.042 116.876C746.042 116.876 746.042 116.876 746.042 116.67C746.042 116.67 746.042 116.67 746.042 116.464C746.042 116.464 745.858 116.258 746.042 116.258V116.052V115.846V115.64V115.434V115.228C746.042 115.022 746.042 114.816 746.042 114.816C746.042 114.61 746.042 114.61 746.042 114.404V114.198V113.992V113.786C746.042 113.58 746.042 113.374 746.042 113.374V113.168C746.042 112.962 746.042 112.962 746.042 112.756C746.042 112.55 746.042 112.55 746.042 112.344C746.042 112.138 746.042 112.138 746.042 111.932C746.042 111.726 746.042 111.726 746.042 111.52C746.042 111.108 746.042 110.902 746.042 110.49C746.042 110.49 746.042 110.49 746.042 110.284H745.858C745.858 110.284 745.858 110.284 745.674 110.284C745.674 110.284 745.674 110.284 745.674 110.49C745.674 110.49 745.674 110.49 745.674 110.696C745.674 110.696 745.674 110.696 745.674 110.902C745.674 110.902 745.674 110.902 745.674 111.108V111.314V111.52V111.726C745.674 111.932 745.674 111.932 745.674 112.138V112.344V112.55V112.756C745.674 112.756 745.674 112.756 745.674 112.962C745.674 112.962 745.674 112.962 745.674 113.168C745.674 113.168 745.674 113.168 745.674 113.374C745.674 113.374 745.674 113.374 745.674 113.58C745.674 113.58 745.674 113.58 745.674 113.786C745.674 113.786 745.674 113.786 745.674 113.992C745.674 113.992 745.674 114.198 745.49 114.198C745.49 114.198 745.49 114.198 745.49 114.404C745.49 114.404 745.49 114.404 745.49 114.61V114.816C745.49 114.816 745.49 114.816 745.49 115.022V115.228V115.434C745.49 115.434 745.49 115.434 745.49 115.64C745.49 115.64 745.49 115.64 745.49 115.846H745.306C745.306 115.846 745.306 115.846 745.306 116.052L745.122 116.258C745.122 116.258 745.122 116.258 744.938 116.464C744.938 116.464 744.938 116.464 744.754 116.67C744.754 116.67 744.754 116.67 744.57 116.876C744.386 116.876 744.386 117.082 744.202 117.082H744.018H743.834C743.834 117.082 743.834 117.082 743.65 117.082C743.65 117.082 743.65 117.082 743.466 117.082H743.282H743.099C743.099 117.082 743.099 117.082 742.915 117.082H742.731C742.547 117.082 742.547 117.082 742.363 117.082C742.179 117.082 742.179 117.082 741.995 117.082C741.811 117.082 741.627 117.082 741.443 117.082C741.259 117.082 741.259 117.082 741.075 117.082H740.891H740.707H740.523H740.339H740.155C740.155 117.082 740.155 117.082 739.971 117.082C739.971 117.082 739.971 117.082 739.787 117.082H739.603C739.603 117.082 739.603 117.082 739.419 117.082H739.235C739.051 117.082 739.051 117.082 738.867 117.082C738.867 117.082 738.867 117.082 738.867 117.288C738.867 117.288 738.867 117.494 739.051 117.494C739.051 117.494 739.051 117.494 739.235 117.494H739.419C739.419 117.494 739.603 117.494 739.603 117.7C739.787 117.7 739.787 117.906 739.971 117.906C739.971 117.906 740.155 117.906 740.155 118.112H740.339C740.339 118.112 740.339 118.112 740.523 118.112C740.707 118.112 740.891 118.318 740.891 118.318H741.075C741.075 118.318 741.075 118.318 741.259 118.318H741.443C741.443 118.318 741.627 118.318 741.627 118.524C741.811 118.524 741.811 118.524 741.995 118.73C741.995 118.73 741.995 118.73 742.179 118.73C742.179 118.73 742.179 118.73 742.363 118.73C742.547 118.73 742.547 118.936 742.731 118.936C742.915 118.936 742.915 119.142 743.099 119.142C743.099 119.142 743.099 119.142 743.099 119.348C743.099 119.348 743.099 119.348 743.099 119.554V119.76C743.099 119.76 743.099 119.76 743.099 119.966C743.099 119.966 743.099 119.966 743.099 120.172C743.099 120.172 743.099 120.172 743.099 120.378V120.584C743.099 120.584 743.099 120.584 743.099 120.79V120.996V121.202V121.408C743.099 121.408 743.099 121.408 743.099 121.614C743.099 121.614 743.099 121.614 743.099 121.82V122.026C743.099 122.026 743.099 122.026 743.099 122.232C743.099 122.232 743.099 122.232 743.099 122.438C743.099 122.438 743.099 122.438 743.099 122.644C743.099 122.644 743.099 122.644 743.099 122.85C743.099 122.85 743.099 122.85 743.099 123.056V123.262C743.099 123.262 743.099 123.262 743.099 123.468C743.099 123.674 743.099 123.674 743.099 123.88C743.099 123.88 743.099 123.88 743.099 124.086V124.292V124.498C743.099 124.498 743.099 124.498 743.099 124.704V124.91C743.099 124.91 743.099 124.91 743.099 125.116V125.322V125.528V125.734C743.099 125.734 743.282 125.734 743.282 125.528C743.282 125.528 743.282 125.528 743.466 125.528C743.466 125.528 743.466 125.528 743.466 125.322V125.116V124.91C743.466 124.704 743.466 124.704 743.466 124.498C743.466 124.292 743.466 124.292 743.466 124.086V123.88C743.466 123.88 743.466 123.88 743.466 123.674C743.466 123.674 743.466 123.674 743.466 123.468V123.262C743.466 123.262 743.466 123.262 743.466 123.056V122.85C743.466 122.85 743.466 122.85 743.466 122.644V122.438V122.232C743.466 122.232 743.466 122.232 743.466 122.026C743.466 122.026 743.466 121.82 743.65 121.82C743.65 121.82 743.65 121.82 743.65 121.614C743.65 121.614 743.65 121.614 743.65 121.408C743.65 121.408 743.834 121.408 743.65 121.202C743.65 121.202 743.65 120.996 743.834 120.996C743.834 120.996 743.834 120.996 744.018 120.79C744.018 120.79 744.018 120.79 744.018 120.584C744.018 120.378 744.202 120.378 744.202 120.172L744.386 119.966C744.386 119.966 744.386 119.966 744.57 119.966C744.57 119.966 744.754 119.966 744.754 119.76C744.754 119.76 744.938 119.554 745.122 119.554C745.306 119.554 745.49 119.348 745.49 119.348H745.674C745.674 119.348 745.674 119.348 745.858 119.348H746.042H746.226H746.41H746.594H746.778H746.962C747.146 119.348 747.146 119.348 747.33 119.348C747.514 119.348 747.514 119.348 747.698 119.348H747.881C748.065 119.348 748.065 119.348 748.249 119.348H748.433H748.617C750.457 119.554 750.457 119.348 750.457 119.142ZM744.938 110.696C744.938 110.902 744.938 110.902 744.938 110.696V110.696ZM744.386 113.168C744.202 112.962 744.202 113.168 744.386 113.168V113.168ZM744.018 113.992C744.018 113.786 744.018 113.786 744.018 113.992V113.992ZM746.594 119.142C746.778 119.142 746.778 119.142 746.594 119.142V119.142ZM746.962 119.142C746.962 118.936 746.962 118.936 746.962 119.142V119.142ZM748.065 118.73C747.882 118.73 747.881 118.73 747.881 118.73C747.698 118.73 747.698 118.73 747.514 118.73H747.33H747.146H746.962C746.962 118.73 746.962 118.73 746.778 118.73C746.778 118.73 746.594 118.73 746.594 118.936C746.594 118.936 746.41 118.936 746.41 119.142L746.226 119.348C746.226 119.348 746.226 119.348 746.042 119.554C746.042 119.554 746.042 119.554 745.858 119.76C745.858 119.76 745.858 119.76 745.674 119.966C745.674 119.966 745.674 120.172 745.49 120.172C745.49 120.172 745.49 120.172 745.49 120.378L745.306 120.584C745.306 120.584 745.306 120.584 745.306 120.79C745.306 120.79 745.306 120.996 745.122 120.996C745.122 120.996 745.122 121.202 744.938 121.202C744.938 121.202 744.938 121.202 744.754 121.408C744.754 121.408 744.754 121.408 744.754 121.614C744.754 121.614 744.754 121.614 744.754 121.82C744.754 121.82 744.754 121.82 744.754 122.026C744.754 122.026 744.754 122.026 744.57 122.026L744.386 122.232V122.438C744.386 122.438 744.386 122.644 744.202 122.644C744.202 122.438 744.202 122.438 744.202 122.232V122.026V121.82V121.614V121.408V121.202V120.996V120.79C744.202 120.79 744.202 120.79 744.202 120.584V120.378C744.202 120.172 744.202 120.172 744.202 119.966C744.202 119.966 744.202 119.76 744.018 119.76C744.018 119.554 743.834 119.554 743.834 119.348C743.834 119.348 743.834 119.142 743.65 119.142C743.65 119.142 743.65 119.142 743.466 119.142C743.466 119.142 743.466 119.142 743.282 118.936C743.282 118.936 743.283 118.936 743.099 118.73C743.099 118.73 743.099 118.73 742.915 118.73C742.915 118.73 742.915 118.73 742.731 118.524C742.731 118.524 742.731 118.524 742.547 118.524C742.547 118.524 742.547 118.524 742.363 118.524H742.179C742.179 118.524 742.179 118.524 741.995 118.524C741.995 118.524 741.811 118.524 741.811 118.318H741.627C741.627 118.318 741.443 118.318 741.259 118.112H741.075C741.075 118.112 741.075 118.112 740.891 118.112H740.707H740.523C740.523 118.112 740.523 118.112 740.339 118.112C740.339 118.112 740.339 118.112 740.155 118.112C740.155 118.112 740.155 118.112 740.339 118.112C740.339 118.112 740.339 118.112 740.523 118.112H740.707H740.891C740.891 118.112 740.891 118.112 741.075 118.112H741.259C741.259 118.112 741.259 118.112 741.443 118.112C741.443 118.112 741.443 118.112 741.627 118.112H741.811H741.995H742.179C742.179 118.112 742.179 118.112 742.363 118.112C742.363 118.112 742.363 118.112 742.547 118.112H742.731H742.915H743.099C743.099 118.112 743.282 118.112 743.282 117.906C743.282 117.906 743.282 117.7 743.466 117.7C743.466 117.494 743.65 117.494 743.65 117.288C743.65 117.288 743.65 117.082 743.834 117.082C743.834 117.082 743.834 116.876 744.018 116.876V116.67C744.018 116.67 744.018 116.67 744.018 116.464C744.018 116.464 744.018 116.258 744.202 116.258C744.202 116.258 744.202 116.258 744.202 116.052V115.846C744.202 115.846 744.202 115.64 744.386 115.64V115.434C744.386 115.434 744.386 115.434 744.386 115.228V115.434C744.386 115.434 744.386 115.434 744.386 115.64V115.846C744.386 115.846 744.386 115.846 744.386 116.052V116.258V116.464C744.386 116.67 744.386 116.67 744.57 116.876V117.082C744.57 117.082 744.57 117.082 744.57 117.288C744.57 117.288 744.57 117.288 744.57 117.494V117.7C744.57 117.7 744.57 117.906 744.754 117.906C744.754 117.906 744.754 117.906 744.754 118.112C744.754 118.112 744.754 118.318 744.938 118.318C744.938 118.318 744.938 118.524 745.122 118.524C745.122 118.73 745.306 118.73 745.49 118.73H745.674C745.674 118.73 745.674 118.73 745.858 118.73C745.858 118.73 745.858 118.73 746.042 118.73C746.042 118.73 746.042 118.73 746.226 118.73C747.882 118.524 747.882 118.524 748.065 118.73C747.882 118.524 747.882 118.524 748.065 118.73C748.065 118.524 747.882 118.524 748.065 118.73C748.065 118.524 748.065 118.524 748.065 118.73Z" fill="#8E61F1"/>
<path d="M750.46 78.7041C750.276 78.4981 750.276 78.4981 750.276 78.4981C750.276 78.4981 750.276 78.4981 750.092 78.4981C750.092 78.4981 750.092 78.4981 749.908 78.4981C749.908 78.4981 749.908 78.4981 749.724 78.4981C749.724 78.4981 749.724 78.4981 749.54 78.4981C749.54 78.4981 749.54 78.4981 749.356 78.4981C749.356 78.4981 749.356 78.4981 749.172 78.4981C749.172 78.4981 749.172 78.4981 748.988 78.4981C748.988 78.4981 748.988 78.4981 748.988 78.2921C748.988 78.2921 748.988 78.2921 748.988 78.0861C748.988 78.0861 748.988 78.0861 748.988 77.8801C748.988 77.8801 748.988 77.8801 748.988 77.6741C748.988 77.6741 748.988 77.6741 748.988 77.4681C748.988 77.4681 748.988 77.4681 748.988 77.2621V77.0561V76.8501C748.988 76.8501 748.988 76.8501 748.988 76.6441C748.988 76.6441 748.988 76.6441 748.988 76.4381V76.2321C748.988 76.2321 748.988 76.2321 748.988 76.0261V75.8201V75.6141V75.4081V75.2021C748.988 74.9961 748.988 74.7901 748.988 74.5841C748.988 74.5841 748.988 74.5841 748.804 74.5841C748.804 74.5841 748.804 74.5841 748.804 74.7901V74.9961C748.804 74.9961 748.804 74.9961 748.804 75.2021C748.804 75.2021 748.804 75.2021 748.804 75.4081V75.6141C748.804 75.6141 748.804 75.6141 748.804 75.8201C748.804 75.8201 748.62 75.8201 748.62 76.0261C748.62 76.0261 748.62 76.0261 748.436 76.0261C748.436 76.0261 748.436 76.0261 748.252 76.0261C748.252 76.0261 748.252 76.0261 748.068 76.0261C748.068 76.0261 748.068 76.0261 747.885 76.0261H747.701H747.517C747.333 76.0261 747.333 76.0261 747.149 76.0261H746.965C746.965 76.0261 746.965 76.0261 746.781 76.0261C746.781 76.0261 746.781 76.0261 746.597 76.0261C746.597 76.0261 746.597 76.0261 746.413 76.0261H746.229C746.229 76.0261 746.229 76.0261 746.413 76.0261H746.597H746.781H746.965C746.965 76.0261 746.965 76.0261 747.149 76.0261H747.333H747.517H747.701H747.885C747.885 76.0261 748.068 76.0261 748.068 76.2321L748.252 76.4381C748.252 76.4381 748.252 76.4381 748.252 76.6441C748.252 76.6441 748.252 76.6441 748.252 76.8501C748.252 76.8501 748.252 76.8501 748.252 77.0561C748.252 77.0561 748.252 77.0561 748.252 77.2621V77.4681C748.252 77.4681 748.252 77.4681 748.252 77.6741C748.252 77.6741 748.252 77.6741 748.252 77.8801C748.252 77.8801 748.252 77.8801 748.252 77.6741V77.4681V77.2621V77.0561C748.252 77.0561 748.252 77.0561 748.252 76.8501V76.6441C748.252 76.6441 748.252 76.6441 748.252 76.4381C748.252 76.4381 748.252 76.4381 748.252 76.2321C748.252 76.2321 748.252 76.0261 748.436 76.0261C748.436 76.0261 748.436 76.0261 748.62 75.8201C748.62 75.8201 748.804 75.8201 748.804 75.6141C748.804 75.6141 748.988 75.6141 748.988 75.4081C748.988 75.4081 748.988 75.4081 749.172 75.4081H749.356C749.356 75.4081 749.356 75.4081 749.54 75.4081C749.54 75.4081 749.54 75.4081 749.724 75.4081H749.908C749.908 75.4081 749.908 75.4081 750.092 75.4081H750.276H750.46C750.46 75.4081 750.46 75.4081 750.644 75.4081H750.828C750.276 78.9101 750.276 78.9101 750.46 78.7041C750.276 78.9101 750.276 78.7041 750.46 78.7041ZM748.804 78.0861C748.62 78.0861 748.62 78.0861 748.804 78.0861V78.0861ZM746.965 74.5841C747.149 74.5841 747.149 74.5841 746.965 74.5841V74.5841ZM748.988 78.2921C748.804 78.2921 748.62 78.2921 748.62 78.2921C748.62 78.2921 748.62 78.2921 748.436 78.2921C748.436 78.2921 748.436 78.2921 748.252 78.2921C748.252 78.2921 748.252 78.2921 748.252 78.4981C748.252 78.4981 748.252 78.4981 748.252 78.7041C748.252 78.7041 748.252 78.7041 748.252 78.9101C748.252 78.9101 748.252 78.9101 748.252 79.1161V78.9101V78.7041C748.252 78.7041 748.252 78.7041 748.252 78.4981C748.252 78.4981 748.252 78.4981 748.252 78.2921V78.0861C748.252 78.0861 748.252 78.0861 748.252 77.8801V77.6741C748.252 77.6741 748.252 77.6741 748.252 77.4681C748.252 77.4681 748.252 77.4681 748.252 77.2621V77.0561V76.8501C748.252 76.8501 748.252 76.6441 748.068 76.6441C748.068 76.6441 748.068 76.6441 748.068 76.4381C748.068 76.4381 748.068 76.4381 747.885 76.4381C747.885 76.4381 747.885 76.4381 747.701 76.4381C747.701 76.4381 747.701 76.4381 747.517 76.4381H747.333C747.333 76.4381 747.333 76.4381 747.149 76.4381C747.149 76.4381 747.149 76.4381 746.965 76.4381C746.965 76.4381 746.965 76.4381 747.149 76.4381H747.333C747.333 76.4381 747.333 76.4381 747.517 76.4381C747.517 76.4381 747.517 76.4381 747.701 76.4381C747.701 76.4381 747.701 76.4381 747.885 76.4381C747.885 76.4381 747.885 76.2321 748.068 76.2321C748.068 76.2321 748.068 76.2321 748.068 76.0261C748.068 76.0261 748.068 76.0261 748.068 75.8201C748.068 75.8201 748.068 75.8201 748.068 75.6141C748.068 75.6141 748.068 75.6141 748.068 75.4081C748.068 75.4081 748.068 75.4081 748.068 75.2021C748.068 75.2021 748.068 75.2021 748.068 74.9961C748.068 74.9961 748.068 74.9961 748.068 75.2021C748.068 75.2021 748.068 75.2021 748.068 75.4081C748.068 75.4081 748.068 75.4081 748.068 75.6141V75.8201C748.068 75.8201 748.068 75.8201 748.068 76.0261V76.2321C748.068 76.2321 748.068 76.2321 748.068 76.4381C748.068 76.4381 748.068 76.4381 748.068 76.6441H748.252C748.252 76.6441 748.252 76.6441 748.436 76.6441C748.804 78.2921 748.988 78.2921 748.988 78.2921Z" fill="#8E61F1"/>
<path d="M780.243 13.1033C780.979 13.1033 781.531 12.8973 782.083 12.8973C782.819 12.6913 783.554 12.4853 784.29 12.6913H784.474C785.21 12.6913 785.394 12.8973 785.21 13.7213C785.21 14.1333 784.842 14.5453 784.658 14.9573C784.29 15.3693 784.106 15.5753 783.738 15.9873C783.186 16.6053 782.819 17.0173 782.267 17.6353C782.083 17.8413 782.083 17.8413 782.267 18.0473C783.186 19.2833 784.106 20.7253 785.026 21.9613C785.21 22.1673 785.21 22.5793 785.21 22.9913C785.026 23.4033 784.842 23.8153 784.474 23.6093C783.922 23.6093 783.37 23.6093 782.819 23.4033C781.531 23.1973 780.243 22.7853 778.955 22.5793C778.771 22.5793 778.587 22.5793 778.403 22.3733C778.036 22.3733 777.852 22.3733 777.852 22.7853C777.668 23.1973 777.668 23.6093 777.484 24.2273C777.116 25.4633 776.932 26.4933 776.564 27.7293C776.38 28.1413 776.38 28.5533 776.196 28.9653C776.196 29.1713 776.012 29.3773 775.828 29.5833C775.644 29.7893 775.644 29.7893 775.276 29.7893C774.908 29.5833 774.54 29.3773 774.356 28.9653C773.804 28.1413 773.253 27.1113 772.517 26.2873L772.333 26.0813C771.229 26.9053 770.309 27.7293 769.205 28.5533C768.838 28.9653 768.47 29.1713 767.918 29.3773C767.182 29.7893 766.63 29.5833 766.446 28.7593C766.262 28.1413 766.262 27.5233 766.262 26.9053C766.262 25.8753 766.078 24.8453 766.078 23.8153C766.078 23.6093 765.894 23.4033 765.894 23.4033C765.342 22.9913 764.79 22.7853 764.055 22.3733C763.135 21.9613 762.399 21.5493 761.295 21.5493H761.111C760.375 21.3433 760.191 20.5193 760.743 20.1073C760.927 19.9013 761.111 19.9013 761.295 19.6953C762.399 18.8713 763.503 17.8413 764.422 16.8113L764.606 16.6053C764.422 16.3993 764.423 16.1933 764.239 15.9873C763.687 15.1633 762.951 14.1333 762.399 13.3093C762.215 13.1033 762.031 12.8973 762.215 12.4853C762.399 12.2793 762.583 12.2793 762.951 12.2793C763.503 12.2793 764.239 12.4853 764.79 12.4853C765.526 12.6913 766.446 12.6913 767.182 12.8973C767.366 12.8973 767.734 12.8973 768.102 13.1033C768.102 12.8973 768.102 12.6913 768.102 12.4853C768.286 11.4553 768.286 10.4253 768.47 9.39534C768.47 8.77734 768.47 8.36534 768.654 7.74734C768.654 7.54134 768.654 7.33535 768.654 7.12935C768.654 6.71735 769.021 6.51134 769.389 6.71734C769.573 6.71734 769.573 6.92335 769.757 7.12935C770.861 8.15935 771.781 9.39534 772.701 10.6313C773.069 11.0433 773.437 11.6613 773.804 12.2793C773.804 12.2793 773.804 12.2793 773.988 12.2793C774.356 11.8673 774.908 11.4553 775.276 10.8373C775.828 10.2193 776.564 9.60134 777.116 8.98334C777.668 8.36534 778.22 7.74735 778.587 7.12935C778.771 6.92335 778.955 6.92334 778.955 6.71734C779.323 6.51134 779.507 6.51134 779.875 6.92334C780.243 7.33534 780.243 7.95334 780.243 8.57134C780.243 9.80734 780.243 11.0433 780.243 12.2793C780.243 12.2793 780.243 12.6913 780.243 13.1033ZM763.135 12.8973C763.687 13.7213 764.239 14.5453 764.79 15.1633C764.974 15.3693 765.158 15.5753 765.342 15.9873C765.526 16.1933 765.526 16.3993 765.526 16.8113C765.526 17.0173 765.342 17.0173 765.158 17.2233C765.158 17.2233 765.158 17.2233 764.974 17.4293C763.871 18.4593 762.767 19.4893 761.663 20.3133L761.479 20.5193C762.399 20.7253 763.319 21.1373 764.239 21.5493C764.79 21.7553 765.526 22.1673 766.078 22.5793C766.446 22.7853 766.63 23.1973 766.63 23.8153C766.63 25.0513 766.814 26.2873 766.814 27.5233C766.814 27.9353 766.814 28.1413 766.998 28.5533C767.366 28.3473 767.734 28.1413 768.102 27.9353C769.205 26.9053 770.677 26.0813 771.781 25.0513C771.781 25.0513 771.781 25.0513 771.965 25.0513C772.333 24.8453 772.701 24.8453 772.885 25.2573C772.885 25.4633 773.069 25.4633 773.069 25.6693C773.621 26.4933 774.172 27.5233 774.908 28.3473C774.908 28.5533 775.092 28.5533 775.276 28.7593C775.644 27.5233 776.012 26.2873 776.38 25.0513C776.564 24.2273 776.748 23.4033 776.932 22.7853C776.932 22.5793 777.116 22.1673 777.3 21.9613C777.484 21.7553 777.668 21.5493 777.852 21.5493C778.036 21.5493 778.22 21.5493 778.403 21.5493C779.691 21.7553 780.795 22.1673 782.083 22.3733C782.819 22.5793 783.37 22.5793 784.106 22.7853C784.29 22.7853 784.29 22.7853 784.474 22.7853V22.5793C784.106 21.9613 783.554 21.3433 783.186 20.7253C782.635 19.9013 782.083 19.2833 781.715 18.4593C781.347 18.0473 781.347 17.8413 781.715 17.4293C782.267 16.6053 782.819 15.9873 783.554 15.3693C783.922 15.1633 784.106 14.7513 784.29 14.5453C784.29 14.5453 784.29 14.3393 784.474 14.1333C784.106 14.1333 783.738 14.1333 783.37 14.3393C782.451 14.5453 781.715 14.5453 780.795 14.7513C780.611 14.7513 780.427 14.7513 780.243 14.9573C780.059 14.9573 779.691 14.9573 779.507 14.7513C779.323 14.5453 779.323 14.3393 779.507 14.1333L779.691 13.9273C779.507 11.8673 779.691 10.0133 779.139 7.95334L778.955 8.15935C778.587 8.57135 778.22 8.98334 777.852 9.39534C776.748 11.0433 775.276 12.2793 773.804 13.5153C773.621 13.7213 773.437 13.7213 773.253 13.7213C773.069 13.7213 773.069 13.5153 773.069 13.3093C773.069 13.1033 773.069 12.8973 772.885 12.8973C771.781 11.8673 770.861 10.6313 769.757 9.39534C769.573 9.18934 769.205 8.77734 769.021 8.57134C768.838 9.60134 768.838 10.6313 768.654 11.6613C768.47 12.6913 768.286 13.7213 768.102 14.7513C767.918 14.7513 767.734 14.7513 767.734 14.5453C767.55 14.3393 767.182 14.3393 766.998 14.3393C766.814 14.3393 766.63 14.3393 766.63 14.3393C765.71 14.1333 764.79 14.1333 763.871 13.9273C763.687 13.1033 763.503 13.1033 763.135 12.8973Z" fill="#8E61F1"/>
<path d="M775.272 2.15447C775.272 2.36047 775.272 2.56647 775.272 2.77247C775.088 3.80247 774.904 4.83247 774.72 5.86247C774.72 6.27447 774.352 6.48047 773.984 6.06847C773.8 5.86247 773.8 5.86247 773.8 5.45047C773.8 4.83247 773.984 4.42047 773.984 3.80247C773.984 3.18447 774.168 2.77247 774.352 2.15447C774.352 1.94847 774.536 1.53647 774.536 1.33047L774.72 1.12447C774.904 0.918471 775.088 0.918471 775.088 1.12447C775.088 1.74247 775.272 1.94847 775.272 2.15447Z" fill="#8E61F1"/>
<path d="M770.314 29.604C770.314 29.81 770.314 29.81 770.314 29.81C770.13 30.222 769.946 30.84 769.762 31.252C769.578 31.87 769.394 32.282 769.026 32.9C769.026 33.106 768.843 33.106 768.843 33.312C768.659 33.518 768.659 33.518 768.475 33.312C768.291 33.312 768.291 33.106 768.291 32.9C768.475 32.282 768.475 31.664 768.659 31.252C768.843 30.634 769.026 30.016 769.21 29.398C769.21 29.192 769.394 28.986 769.762 28.986C769.946 28.986 769.946 28.986 770.13 29.192C770.13 29.192 770.314 29.398 770.314 29.604Z" fill="#8E61F1"/>
<path d="M785.763 7.11909C785.763 7.11909 785.763 7.32509 785.579 7.32509C785.395 7.53109 785.395 7.53109 785.211 7.73709C784.659 8.35509 784.107 9.17909 783.555 9.79709C783.372 10.0031 783.188 10.2091 783.004 10.4151C782.82 10.6211 782.452 10.6211 782.084 10.2091C781.9 10.0031 781.9 9.79708 782.084 9.59108C782.268 9.38508 782.636 8.97309 782.82 8.76709C783.555 8.14909 784.107 7.73709 784.843 7.11909C785.027 7.11909 785.027 6.91309 785.211 6.91309C785.579 6.70709 785.763 6.91309 785.763 7.11909Z" fill="#8E61F1"/>
<path d="M761.489 6.29504C761.673 6.50104 761.857 6.50105 762.041 6.70705C762.777 7.53105 763.696 8.14904 764.432 8.97304C764.8 9.17904 764.8 9.38504 764.616 9.59104C764.432 10.003 764.064 10.003 763.88 9.79705C763.696 9.59105 763.512 9.38505 763.145 9.17905C762.409 8.56105 761.857 7.73704 761.305 6.91304C761.489 6.70704 761.305 6.50104 761.489 6.29504Z" fill="#8E61F1"/>
<path d="M763.504 25.0617C763.504 25.2677 763.504 25.4737 763.32 25.4737C763.136 25.6797 762.952 25.6797 762.769 25.8857C761.849 26.5037 760.929 27.1217 759.825 27.7397C759.825 27.7397 759.641 27.7397 759.641 27.9457H759.457C759.273 27.9457 759.457 27.7397 759.457 27.5337C759.457 27.3277 759.641 27.3277 759.641 27.3277C760.193 26.9157 760.561 26.5037 761.113 26.0917C761.665 25.6797 762.401 25.2677 762.952 24.8557C763.136 24.8557 763.136 24.6497 763.32 24.6497C763.504 24.6497 763.504 24.8557 763.504 25.0617Z" fill="#8E61F1"/>
<path d="M787.414 19.2834C786.494 19.2834 785.574 19.0774 784.838 18.8714C784.471 18.8714 784.287 18.4594 784.471 18.2534C784.471 18.0474 784.655 17.8414 784.838 18.0474C785.022 18.0474 785.39 18.0474 785.574 18.0474C786.494 18.2534 787.414 18.2534 788.15 18.6654H788.334L788.518 18.8714L788.334 19.0774C788.15 19.2834 787.782 19.2834 787.414 19.2834Z" fill="#8E61F1"/>
<path d="M762.039 17.6353C761.855 18.0473 761.487 18.0473 761.119 18.0473C760.751 18.0473 760.199 18.0473 759.831 17.8413C759.279 17.8413 758.728 17.6353 758.36 17.4293H758.176L757.992 17.2233L758.176 17.0173C758.912 17.0173 759.647 17.0173 760.567 17.0173C760.935 17.0173 761.119 17.0173 761.487 17.0173C761.487 17.2233 761.855 17.2233 762.039 17.6353Z" fill="#8E61F1"/>
<path d="M782.813 28.3577C782.813 28.3577 782.629 28.3577 782.629 28.1517C781.709 27.1217 780.974 26.2977 780.054 25.2677C780.054 25.2677 780.054 25.2677 779.87 25.0617C779.686 24.8557 779.87 24.6497 780.054 24.4437C780.238 24.2377 780.422 24.4437 780.606 24.6497C780.79 24.8557 780.974 25.2677 781.157 25.4737C781.525 25.8857 781.893 26.5037 782.261 26.9157C782.445 27.1217 782.629 27.5337 782.813 27.7397C782.813 27.9457 782.813 28.1517 782.813 28.3577Z" fill="#8E61F1"/>
</svg>
